<?xml version="1.0" encoding="UTF-8"?>
<svg id="Camada_2" data-name="Camada 2" xmlns="http://www.w3.org/2000/svg" viewBox="0 0 490.28 464.87">
  <defs>
    <style>
      .cls-1 {
        fill: #00869f;
      }

      .cls-2 {
        fill: #f00013;
      }

      .cls-3 {
        fill: #336182;
      }
    </style>
  </defs>
  <g>
    <circle class="cls-3" cx="119.14" cy="19.53" r="19.53"/>
    <circle class="cls-3" cx="197.27" cy="97.66" r="19.53"/>
  </g>
  <g>
    <path class="cls-1" d="m51.2,324.85c.12.18.18.42.18.72,0,.18-.05.45-.14.8-.09.36-.14.58-.14.67-.06.24-.09.51-.09.8v2.42s-.09.76-.27,2.19c-.06.3-.11.82-.14,1.57-.03.74-.09,1.31-.18,1.7v1.65s.01.11.04.22c.03.12.05.21.05.27,0,.03-.01.16-.05.4-.03.24-.04.43-.04.58,0,.09.04.21.11.36.07.15.11.27.11.36v.22c0,.09.01.21.04.36.03.15.05.27.05.36,0,.3-.05.75-.16,1.36s-.16,1.07-.16,1.36c.06.12.09.37.09.76v.27c0,.3-.03.51-.09.63,0,.12-.02.34-.05.67s-.04.57-.04.72c0,.18.01.45.04.8.03.36.05.61.05.76,0,.65-.12,1.07-.36,1.25-.12.06-.33.09-.63.09-.89,0-1.38-.18-1.47-.54,0-.24.01-.52.04-.85.03-.33.05-.57.05-.72,0-.48-.03-.8-.09-.98,0-.12.01-.31.04-.58.03-.27.05-.45.05-.54,0-.18-.05-.45-.16-.8-.1-.36-.17-.58-.2-.67v-.54l-.45-1.83-.94-1.83c-.06-.18-.09-.42-.09-.72-.18-1.58-.76-2.8-1.74-3.67-.03-.18-.12-.43-.27-.74s-.24-.5-.27-.56c0-.24-.06-.36-.18-.36-.03-.09-.16-.2-.38-.34-.22-.13-.36-.23-.43-.29l-1.03-1.12c-.15-.06-.35-.22-.6-.49-.25-.27-.4-.49-.43-.67-1.04-.95-2.22-1.76-3.53-2.41-.24,0-.6-.08-1.09-.25s-.84-.26-1.05-.29c-.09-.03-.23-.07-.43-.11-.2-.05-.36-.08-.51-.11s-.28-.05-.4-.05h-.27c-.15,0-.38.03-.7.09-.31.06-.54.09-.69.09h-1.12c-.24.03-.52.13-.85.31-.33.18-.55.28-.67.31-.12.09-.28.22-.47.4-.2.18-.39.33-.58.45-.2.12-.4.21-.61.27l-1.3,1.38c-.03.15-.09.31-.18.47s-.22.35-.4.56c-.18.21-.3.37-.36.49l-.27,1.12c-.03.06-.09.19-.18.38-.09.2-.15.36-.18.51-.24,1.19-.39,2.09-.45,2.68,0,.18-.06.51-.18.99-.12.48-.18.82-.18,1.03,0,.18.01.47.05.87.03.4.04.7.04.87v1.83c0,.18.03.43.09.76s.09.57.09.72l-.36,3c0,.15.01.37.04.67.03.3.05.51.05.63v.27c0,.63-.05,1.56-.14,2.79-.09,1.24-.13,2.14-.13,2.7,0,.69.03,1.18.09,1.48,0,.15-.02.38-.05.69s-.04.56-.04.74c0,.06-.02.16-.05.29-.03.13-.05.23-.05.29,0,.69.09,1.27.27,1.74,0,.15-.02.39-.05.72s-.04.57-.04.72.01.41.04.78c.03.37.05.63.05.78,0,.18-.03.47-.09.87-.06.4-.09.7-.09.87,0,.15.01.4.04.76.03.36.05.63.05.8-.03.12-.09.4-.18.85-.09.45-.13.78-.13.98,0,.24.02.65.07,1.25.05.6.07,1.09.07,1.48-.03.27-.12.67-.27,1.21s-.22.97-.22,1.3c0,.12.06.48.18,1.07v.94c0,.24.06.48.18.72v2.01c.09.36.13.76.13,1.21v.45c0,.12-.02.28-.07.49-.04.21-.07.37-.07.49v5.9c0,.12.02.29.07.51.05.22.07.41.07.56v.36c0,.06-.02.16-.07.29-.04.14-.07.23-.07.29.03.18.13.46.29.85s.26.64.29.76c0,.21.03.37.09.49,0,.03.01.07.05.14.03.06.04.1.04.13l.18.81.18.09c.06.36.21.76.45,1.21.03.03.06.05.09.07.03.02.06.04.09.07.03.03.06.07.09.13,0,.06.01.13.05.2.03.07.04.13.04.16.12.12.28.18.49.18.06.12.09.26.09.4l1.07.54,1.03.63s.07.03.14.09c.06.06.1.09.14.09v.09h.09l.63.31.85.62c.27.06.54.11.81.14.27.03.57.05.89.07.33.01.58.04.76.07h.63c.06,0,.17.01.33.04.16.03.28.05.34.05.12,0,.36-.09.72-.27h2.46c.09-.03.29-.12.6-.27.31-.15.55-.24.7-.27.63,0,1.11-.06,1.45-.18.34-.12.81-.41,1.41-.85.06-.06.09-.12.09-.18l.54-.27c.48-.24.94-.7,1.39-1.39l.53-.62.63-.36v-.31s.12-.03.27-.09.25-.12.31-.18l.98-1.34c.18-.18.33-.43.45-.76.06-.15.19-.36.38-.63.2-.27.32-.48.38-.63,0-.06.01-.14.04-.25.03-.1.05-.18.05-.24l.63-1.34c.27-.42.45-.88.53-1.39.06-.12.14-.33.25-.65s.19-.53.25-.65v-.36c0-.27.12-.82.36-1.65.36-.36,1-.54,1.92-.54.57,0,1,.24,1.3.72,0,.33-.14.76-.4,1.3,0,.03-.06.2-.18.49-.12.3-.18.54-.18.72-.03.06-.09.19-.18.38-.09.19-.15.36-.18.51-.09.63-.24,1.33-.45,2.1l-.27.63c-.03.06-.26.52-.67,1.39l-.27.54c-.06.06-.24.31-.54.76l-.67.99c-.06.06-.09.12-.09.18l-.27.58c-.09.12-.28.31-.58.58-.3.27-.52.49-.67.67-.09.06-.28.31-.58.76l-.72.8-.09.09c-.18.06-.41.25-.67.56s-.45.5-.54.56c-.03,0-.09.02-.18.05s-.15.05-.18.05c-1.22.59-1.98,1.03-2.28,1.3l-.09.09c-.21.06-.46.21-.74.45-.28.24-.53.39-.74.45-.06.03-.14.06-.25.09-.1.03-.17.06-.2.09-.12,0-.21.03-.27.09v.09l-.4.18c-.15.09-.85.34-2.1.76-.72.18-1.25.27-1.61.27-.09,0-.24-.01-.45-.04-.21-.03-.37-.05-.49-.05-.27,0-.72.03-1.34.09s-1.09.09-1.39.09h-.49l-1.34-.27c-.15,0-.43.01-.85.05-.42.03-.78.04-1.07.04-.06,0-.16.01-.29.05-.13.03-.23.04-.29.04-.15-.03-.42-.11-.8-.24-.39-.14-.67-.23-.85-.29-.03-.03-.3-.14-.8-.31-.03,0-.07-.03-.14-.09-.06-.06-.1-.09-.13-.09-.06-.06-.2-.1-.41-.13-.21-.03-.36-.07-.45-.14-.06,0-.14-.03-.25-.09-.1-.06-.17-.09-.2-.09-.86-.36-1.36-.57-1.48-.63-.12-.06-.3-.21-.53-.45-.75-.15-1.13-.22-1.16-.22-.15-.21-.35-.4-.6-.58-.26-.18-.54-.36-.85-.54s-.55-.31-.69-.4c-.51-.33-1.48-1.13-2.91-2.42-.27-.33-.79-.74-1.57-1.25l-.36-.36s-.05-.03-.07-.09-.03-.12-.05-.18c-.01-.06-.04-.1-.07-.13h-.18c-.03-.06-.11-.16-.25-.29-.14-.14-.22-.25-.24-.34-.24-.12-.39-.24-.45-.36-.24-.24-.39-.42-.45-.54-.45-.45-.72-.76-.8-.94-.27-.48-.76-1.16-1.48-2.06-.72-.89-1.12-1.4-1.21-1.52-.3-.3-.51-.68-.63-1.16l-.27-.22c-.54-.81-.97-1.69-1.3-2.64-.03-.06-.09-.18-.18-.36-.09-.18-.15-.33-.18-.45-.06-.06-.15-.21-.27-.45-.12-.24-.18-.37-.18-.4,0-.09-.07-.21-.22-.36,0-.12-.06-.3-.18-.54-.36-.36-.57-.64-.63-.85-.03-.09-.16-.39-.38-.89-.22-.51-.43-.88-.61-1.12,0-.24-.09-.61-.29-1.1-.19-.49-.29-.77-.29-.83-.03-.09-.05-.27-.07-.54-.02-.27-.05-.45-.11-.53l-.54-1.48c-.06-.12-.09-.33-.09-.63v-.76l-.27-1.38c0-.24-.04-.58-.13-1.03-.09-.45-.14-.84-.14-1.16,0-.42-.05-.8-.14-1.16-.06-.12-.09-.37-.09-.76v-.72c-.06-.18-.1-.35-.11-.51-.01-.16-.02-.36-.02-.58s-.02-.44-.05-.65v-.63c0-.8.03-1.38.09-1.74v-1.12c0-.12.06-.24.18-.36v-.53l.4-2.77c.12-.66.24-1.18.36-1.57,0-.03.01-.07.05-.14.03-.06.04-.1.04-.14.15-.51.33-1.24.54-2.21.21-.97.39-1.69.54-2.17.03-.15.11-.36.24-.65.14-.28.22-.5.25-.65l.45-1.43.45-1.03.36-.45.49-1.03.27-.36c.18-.18.33-.58.45-1.21.06-.27.27-.57.63-.92.36-.34.58-.6.67-.78.24-.24.57-.79,1.01-1.65.43-.86.86-1.44,1.28-1.74l.72-1.03.36-.36c.86-.86,1.51-1.44,1.92-1.74,1.67-1.67,3.23-3.01,4.69-4.02.06-.06.22-.14.47-.25.25-.1.42-.17.51-.2.21-.21.49-.36.85-.45.18-.18.45-.31.81-.4,0-.12.03-.18.09-.18l.58-.27c.15-.09.39-.19.72-.31.33-.12.57-.22.72-.31.09-.06.25-.17.49-.34s.45-.28.63-.33c.06-.06.2-.12.43-.18.22-.06.38-.12.47-.18l.76-.36c.45-.06,1.05-.22,1.79-.47s1.28-.43,1.61-.51c.39-.06,1.01-.14,1.86-.25.85-.1,1.42-.18,1.72-.24.12,0,.24-.06.36-.18h1.16c.06-.06.25-.09.58-.09h.27c.06,0,.15.02.27.05.12.03.21.04.27.04.18.06.55.09,1.12.09l1.25.27c.36.12.67.18.94.18.03,0,.27.07.72.22h.18c1.13.15,1.83.27,2.1.36l1.47.27.76.27,1.16.27c.06.06.21.09.45.09h.58c.06.03.17.05.34.07.16.02.32.05.47.11.06,0,.17.03.34.09.16.06.29.09.38.09.27,0,.46.03.58.09.21,0,.45.04.72.13.42,0,.76-.13,1.03-.4.03,0,.12-.04.27-.13.15-.09.24-.14.27-.14.27-.18.42-.33.45-.45.09-.03.25-.11.49-.24.24-.14.42-.2.54-.2h.18Z"/>
    <path class="cls-1" d="m57.46,384.28c-.06-.03-.11-.1-.14-.22-.03-.12-.07-.22-.14-.31-.78-1.34-1.51-3.05-2.19-5.14,0-.03-.01-.09-.04-.18-.03-.09-.05-.15-.05-.18-.12-1.55-.36-2.59-.72-3.13v-.27l-.04-.81c-.03-.51-.05-1.09-.05-1.74,0-1.22.03-2.3.09-3.22.12-.47.18-.88.18-1.21l.36-1.34c.18-.45.33-.97.45-1.57.53-1.49.88-2.56,1.03-3.22.09-.38.28-.88.58-1.47.3-.6.49-1.01.58-1.25.3-.6.52-.97.67-1.12.39-.78.69-1.27.89-1.48l.27-.54c0-.06.04-.16.13-.31.09-.15.2-.33.31-.54.12-.21.2-.36.22-.45.12-.12.24-.3.36-.54.18-.33.34-.57.47-.74.14-.16.36-.4.69-.72.33-.31.55-.53.67-.65.63-.8,1.21-1.36,1.74-1.65l1.16-1.12c.24-.24.67-.57,1.3-.98.63-.42,1.09-.79,1.39-1.12.3-.03.63-.16,1.01-.38s.57-.34.6-.34l1.57-.72c.12-.03.29-.11.51-.24.22-.14.36-.22.43-.25.12-.06.31-.12.58-.18.27-.06.46-.12.58-.18.06-.03.22-.12.47-.27s.44-.24.56-.27c1.31-.24,2.89-.7,4.74-1.39.57-.09,1.09-.21,1.57-.36.24-.06.65-.12,1.23-.18.58-.06,1.01-.12,1.28-.18.36-.12.63-.18.8-.18h1.57c.3.06.94.09,1.92.09h1.07c.12,0,.38.04.8.14.42.09.73.13.94.13h.36l.67.27c.09.03.35.07.78.11.43.04.75.09.96.16.12.03.35.11.69.22s.6.2.78.22l1.52.4c.42.21.64.33.67.36.3.12.75.36,1.34.72.6.36,1.06.61,1.39.76.06.06.23.14.51.25.28.1.49.2.6.29,0,.06.18.2.54.43.36.22.74.46,1.16.72.42.25.67.45.76.6.18.09.43.24.74.45.31.21.56.36.74.45.03.03.1.06.22.09.12.03.19.06.22.09.51.21,1.02.63,1.54,1.25.52.62.92,1.04,1.18,1.25.06.06.2.23.41.51.21.28.38.47.53.56.06.09.29.38.7.87.4.49.74.93,1.01,1.32.27.39.46.7.58.94.06.15.18.36.36.63.18.27.3.48.36.63.18.39.45.88.81,1.47.36.6.61,1.03.76,1.3.09.15.31.76.67,1.83.51,1.25.86,2.65,1.07,4.2v1.12c0,.6.03.99.09,1.16v2.01c0,.69-.03,1.24-.09,1.65l-.18,1.57c-.03.24-.21,1.19-.54,2.86-.03.15-.09.34-.18.58s-.15.43-.18.58c-.06.21-.16.63-.31,1.25-.15.62-.3,1.13-.45,1.52-.12.24-.18.45-.18.63l-.54,1.65c-.33.57-.58,1.15-.76,1.74-.03.03-.16.24-.38.65-.22.4-.34.71-.34.92-.42.83-1,1.62-1.74,2.37l-.8.98c-.09.24-.82,1.05-2.19,2.42-.18.18-.49.43-.92.76-.43.33-.74.58-.92.76-.39.51-.88,1-1.48,1.48-.18.18-.52.36-1.03.54l-.54.49-1.47.89c-.18.18-.3.27-.36.27-.18.15-.73.37-1.65.67-.06.03-.22.11-.47.22-.26.12-.46.2-.61.22l-1.12.18-.89.27c-.39.15-1.1.3-2.15.47-1.05.16-1.74.32-2.1.47-.09.03-.4.09-.94.18s-.92.21-1.16.36c-.12,0-.37.01-.76.05-.39.03-.66.04-.8.04h-1.7c-.3,0-.72-.05-1.25-.16-.54-.11-.89-.17-1.07-.2l-1.25-.18-1.03-.31c-.15-.03-.37-.07-.67-.11-.3-.05-.57-.1-.83-.16s-.49-.15-.69-.27l-1.03-.27c-.09-.03-.25-.05-.47-.07s-.41-.04-.56-.07c-.15-.03-.28-.11-.4-.22l-.36-.18c-.21-.06-.59-.16-1.14-.29-.55-.13-1.04-.27-1.45-.42s-.74-.34-.98-.58l-2.68-1.38c-.24-.21-.82-.54-1.74-.99-.09-.06-.43-.34-1.01-.83-.58-.49-1.03-.83-1.36-1.01-.33,0-.67-.25-1.03-.74-.36-.49-.65-.77-.89-.83-.24-.12-.73-.55-1.48-1.3-.15-.03-.3-.19-.47-.47-.16-.28-.28-.45-.34-.51-.69-.69-1.12-1.21-1.3-1.57-.12-.24-.4-.6-.83-1.09-.43-.49-.74-.89-.92-1.19Zm36.08,6.39c.09-.09.2-.27.31-.56.12-.28.24-.49.36-.6.03-.03.12-.61.27-1.74,0-.03.01-.06.05-.09.03-.03.04-.06.04-.09.12-.48.18-.88.18-1.21v-.72c0-.33.03-.61.09-.85,0-.18.06-.45.18-.8,0-.21.01-.47.05-.78.03-.31.04-.54.04-.69.06-.3.09-.82.09-1.57,0-.3.03-.72.09-1.25.06-.53.09-.94.09-1.21,0-.09-.03-.23-.09-.43-.06-.19-.09-.34-.09-.43,0-.12.03-.3.09-.53s.09-.42.09-.54l.18-3.76v-.18c-.12-.95-.18-1.68-.18-2.19,0-.06.01-.16.04-.29s.05-.23.05-.29v-1.74c0-.21.03-.52.09-.94.06-.42.09-.72.09-.9v-.27c0-.12-.01-.3-.05-.54-.03-.24-.04-.42-.04-.54-.06-.3-.09-.76-.09-1.38v-1.21c0-.18-.02-.43-.05-.76s-.04-.58-.04-.76v-1.03c0-1.97-.27-4.1-.81-6.39-.12-.12-.24-.3-.38-.56-.14-.25-.26-.53-.38-.85-.12-.31-.21-.51-.27-.61-.12-.27-.32-.63-.6-1.07-.28-.45-.47-.79-.56-1.03-.03-.09-.2-.28-.49-.58-.18-.24-.45-.48-.8-.72-.27-.3-.94-.79-2.01-1.47-.33-.09-.58-.24-.76-.45-.72-.45-1.83-.67-3.36-.67-.36.09-.76.14-1.21.14h-1.07c-.45,0-.76.03-.94.09-.45.09-.88.24-1.3.45-.27.06-.54.19-.8.38-.27.2-.45.31-.54.34l-.58.18-1.16.94c-.15.15-.32.4-.51.74-.2.34-.36.59-.51.74l-.63.72c-.06.36-.21.82-.45,1.39-.09.15-.19.39-.31.72l-.63,1.3-.53,1.34c0,.06-.18.89-.54,2.5,0,.03-.07.27-.22.72-.06.12-.09.27-.09.45v.49c-.12.83-.18,1.44-.18,1.83-.03.24-.09.53-.18.87-.09.34-.15.56-.18.65s-.05.31-.07.65c-.02.34-.05.59-.11.74,0,.09-.02.22-.05.38s-.04.28-.04.34c0,.27-.03.63-.09,1.09-.06.46-.09.81-.09,1.05v.99c0,.12-.01.29-.04.51-.03.22-.05.39-.05.51v1.83c0,.24.01.61.05,1.12.03.51.04.9.04,1.16v2.1c.18.89.27,1.51.27,1.83.06.54.09,1.27.09,2.19,0,.68.03,1.18.09,1.47v.63c0,.09.01.2.05.34.03.14.04.23.04.29.06.15.11.43.16.83.04.4.11.71.2.92.03.18.07.37.13.58.06.21.14.43.25.65.1.22.17.4.2.51,0,.27.03.49.09.67.09.18.23.56.43,1.14.19.58.38,1.02.56,1.32.03.09.1.21.22.36.12.15.19.27.22.36.03.06.14.34.31.85.36.36.69.84.99,1.43.63.36,1.06.79,1.3,1.3.12.12.28.29.49.51.21.22.37.36.49.43l.49.36c.18.15.43.29.74.43s.51.23.6.29c.18.18.34.27.49.27.6.3,1.33.49,2.19.58l1.34.27c.18.06.4.09.67.09.36,0,.62-.03.8-.09l1.38-.18c.95-.39,1.45-.58,1.48-.58.8-.39,1.25-.63,1.34-.72.36-.15.79-.45,1.3-.9.51-.45.85-.73,1.03-.85.09-.18.27-.46.56-.85s.49-.69.6-.9Z"/>
    <path class="cls-1" d="m177.84,397.56c-.06.03-.14.1-.25.2-.1.1-.17.16-.2.16h-1.83c-.36.06-.97.09-1.83.09h-5.14c-.6,0-1.51-.01-2.73-.04-1.22-.03-2.13-.05-2.73-.05-.36,0-.89-.01-1.61-.04-.72-.03-1.28-.05-1.7-.05-.8,0-1.42.03-1.83.09-.12,0-.34-.01-.67-.04-.33-.03-.57-.05-.72-.05-.3,0-.54.03-.72.09h-1.03c-.48,0-.74-.12-.8-.36v-.27c0-.15.03-.37.09-.67s.09-.54.09-.72v-.36c0-.33-.03-.58-.09-.76v-.09c0-.12.07-.57.22-1.34.15-.77.22-1.36.22-1.74,0-.12-.03-.3-.09-.56s-.09-.44-.09-.56v-3.4c0-.3.01-.76.04-1.39.03-.63.05-1.07.05-1.34.12-.36.18-.91.18-1.65,0-.36-.03-.91-.09-1.65-.06-.74-.09-1.32-.09-1.74,0-.48.03-.83.09-1.07v-1.84c0-.15.01-.37.05-.67.03-.3.04-.54.04-.72v-1.48c.06-.3.09-.82.09-1.57v-1.7c0-.24-.03-.6-.09-1.1-.06-.49-.09-.84-.09-1.05v-.63c0-.18.01-.43.05-.76.03-.33.04-.57.04-.72,0-.24-.03-.42-.09-.54.06-.18.09-.42.09-.72,0-.15-.01-.4-.04-.76-.03-.36-.05-.65-.05-.89,0-.09.01-.22.05-.38.03-.16.04-.29.04-.38,0-.06.01-.16.05-.31.03-.15.04-.25.04-.31,0-.12-.06-.42-.18-.89,0-.21-.01-.43-.05-.67-.03-.24-.04-.48-.04-.72,0-.09-.01-.23-.05-.42-.03-.2-.04-.34-.04-.43s.01-.22.04-.4c.03-.18.05-.31.05-.41,0-.15-.09-.58-.27-1.3-.03-.12-.08-.41-.16-.87-.07-.46-.17-.81-.29-1.05l-1.21-2.28-.9-1.3c-.65-.51-1.06-.8-1.21-.89-.84-.42-1.74-.63-2.73-.63-1.58,0-2.71.45-3.4,1.34-.03.03-.19.22-.47.56-.28.34-.53.59-.74.74-.09.33-.42.92-.99,1.77-.57.85-.85,1.54-.85,2.08l-.27.72c-.06.69-.09,1.79-.09,3.31,0,.36.03.92.09,1.7s.09,1.37.09,1.79c-.12,1.07-.18,1.77-.18,2.1,0,.21.06.67.18,1.39v.36c0,.09,0,.3-.02.63-.02.33-.03.84-.05,1.52-.01.68-.02,1.52-.02,2.5,0,.21-.04.6-.14,1.19-.09.58-.13,1.05-.13,1.41,0,.3.04.75.13,1.36.09.61.14,1.07.14,1.36,0,.06-.01.17-.04.34-.03.16-.05.28-.05.33,0,.03-.01.17-.05.43-.03.25-.06.74-.09,1.45-.03.72-.04,1.64-.04,2.77v3.85c-.06.18-.09,1.49-.09,3.94v1.12c0,.42.03.72.09.89.06.24.21.52.45.83.24.31.46.57.65.78.2.21.48.49.85.85.37.36.6.58.69.67l.58.54c.47.48.72.88.72,1.21v.18c-.24.3-.7.45-1.39.45h-.89c-.48-.12-.79-.18-.94-.18h-.36c-.12.06-.33.09-.63.09-.15,0-.38-.01-.69-.04-.31-.03-.54-.05-.69-.05h-3.13c-.72.12-1.3.18-1.74.18-.27,0-.69-.01-1.25-.04-.57-.03-1-.05-1.3-.05h-.54c-.18,0-.51-.01-.99-.04-.48-.03-.91-.05-1.3-.05h-7.69c-.21,0-.56.03-1.05.09-.49.06-.92.09-1.28.09h-.54c-.45,0-.78-.15-.98-.45v-.27c0-.24.11-.45.33-.63.22-.18.47-.34.74-.49l.09-.09c.65-.09,1.36-.36,2.1-.8.09-.09.27-.25.54-.49.27-.24.49-.45.67-.65.18-.2.33-.4.45-.6.3-.6.45-1.4.45-2.42v-2.01c0-.36.03-.63.09-.8v-4.56c.27-1.1.4-2.26.4-3.49,0-.78-.06-1.85-.18-3.22,0-.18.01-.44.04-.78s.05-.6.05-.78v-5.23c0-.09-.02-.24-.05-.45-.03-.21-.04-.36-.04-.45v-.36c0-.45.03-.79.09-1.03.06-.98.09-2.42.09-4.29,0-1.46-.03-2.57-.09-3.31,0-.92.06-1.69.18-2.28,0-.12-.01-.32-.05-.6-.03-.28-.04-.49-.04-.61v-4.56c0-.42-.06-1.49-.18-3.22l-.94-1.25c-.09-.03-.38-.19-.87-.47-.49-.28-.92-.5-1.3-.65-.37-.15-.76-.27-1.14-.36-.27-.03-.72-.21-1.34-.54-.03-.03-.16-.1-.4-.22-.24-.12-.39-.21-.45-.27-.48-.48-.72-.8-.72-.98v-.09c.06-.18.3-.27.72-.27h1.74c.21,0,.5.01.87.05.37.03.66.04.87.04h1.65c.06,0,.15-.01.27-.04.12-.03.21-.05.27-.05.18,0,.45.03.83.09.37.06.65.09.83.09.06,0,.16-.01.31-.04s.25-.05.31-.05c.21,0,.57-.01,1.07-.04.51-.03.92-.05,1.25-.05h.63c.27,0,.68-.01,1.23-.04.55-.03.96-.05,1.23-.05.15,0,.36.01.65.05.28.03.5.04.65.04h1.48l3.17.09c.27.06.58.33.94.8.51.51.89.94,1.16,1.3l1.92,2.64c.36.57.55.85.58.85.12-.03.25-.1.4-.22.15-.12.31-.28.49-.49.18-.21.3-.34.36-.4.45-.45.73-.72.85-.8,1.34-1.34,2.28-2.21,2.82-2.59.06-.03.54-.3,1.43-.8.89-.51,1.37-.79,1.43-.85.48-.24.89-.36,1.25-.36.24-.18.61-.27,1.12-.27h.63c.09,0,.24-.03.45-.09.21-.06.37-.09.49-.09h.18c.12,0,.21-.03.27-.09,1.25-.18,2.15-.27,2.68-.27.95-.12,1.62-.18,2.01-.18.57.06,1.39.24,2.46.56,1.07.31,1.78.51,2.1.61.36,0,.72.07,1.07.22.36.15.82.38,1.38.7s1.06.56,1.48.74c1.13.72,2.03,1.42,2.71,2.12.67.7,1.25,1.45,1.74,2.23.49.79.93,1.38,1.32,1.77.06.06.12.16.18.31s.12.27.18.36c.36.54.64.86.85.98.48-.15.86-.76,1.16-1.83.09,0,.18-.09.27-.27.15-.3.46-.69.94-1.16l.72-.85c.59-1.1,1.97-2.26,4.11-3.49l.49-.27.36-.18c.09-.03.27-.13.53-.29.27-.16.51-.29.72-.38.21-.09.41-.14.58-.14l.8-.31s.29-.1.78-.29c.49-.2.84-.3,1.05-.34.18-.12.43-.22.74-.29s.66-.14,1.05-.2.65-.1.8-.14c.09-.03.28-.06.56-.09.28-.03.48-.06.6-.09.12,0,.29-.01.51-.05.22-.03.39-.04.51-.04.06,0,.21.01.45.04.24.03.45.05.63.05h1.47c.3,0,.56.02.78.07.22.05.39.1.51.16.12.06.3.15.56.27.25.12.49.22.7.31.06.03.24.09.56.18s.53.21.65.36l1.12.58c.21.15.59.37,1.14.67s.99.59,1.32.89c.09.12.28.32.56.6.28.28.47.53.56.74.06.24.24.56.54.96s.48.66.54.78c.03.09.07.25.11.47s.1.43.18.6.19.34.34.49c.39.86.64,1.57.76,2.1l.18,1.21c.12,1.34.27,2.19.45,2.55v7.78c0,.63.01,1.59.04,2.88.03,1.3.05,2.32.05,3.06v1.48c0,.12-.03.6-.09,1.43-.06.84-.12,1.49-.18,1.97v2.55c0,.06-.01.18-.04.36-.03.18-.05.31-.05.4l.18,1.52c-.06.8-.09,2-.09,3.58v1.74c0,.27.06.58.18.94v1.07c0,.18.01.46.04.85.03.39.05.69.05.9,0,.69-.03,1.18-.09,1.47,0,.12.01.31.04.56s.05.45.05.6c0,1.07.09,1.88.27,2.42.18.36.73.85,1.65,1.48.03.03.22.16.58.4.36.24.7.46,1.01.67.31.21.6.44.87.69.27.26.4.43.4.51,0,.18-.13.27-.4.27h-.45c-.42.12-.97.18-1.65.18h-1.25c-.12-.06-.34-.09-.67-.09h-.98c-.15,0-.42.05-.8.14-.39.09-.67.13-.85.13h-1.12c-.51,0-1.31-.01-2.42-.04-1.1-.03-1.94-.05-2.5-.05-.98,0-1.71.03-2.19.09h-1.65c-.06,0-.22,0-.49-.02-.27-.02-.45-.03-.56-.05-.11-.01-.28-.04-.51-.07-.24-.03-.43-.07-.56-.11-.14-.05-.29-.1-.47-.16-.18-.06-.34-.14-.47-.24-.14-.11-.25-.22-.34-.34-.06-.06-.2-.16-.43-.31-.22-.15-.38-.3-.47-.45l-.49-.89c-.33-.57-.54-.97-.63-1.21-.06-.09-.15-.31-.27-.65-.12-.34-.27-.62-.45-.83-.15-.21-.28-.57-.4-1.07-.42-1.01-.63-1.97-.63-2.86v-.63c0-.69-.03-1.24-.09-1.65,0-.12-.05-.37-.14-.76-.09-.38-.14-.68-.14-.89v-6.48c.12-1.73.18-3.04.18-3.94v-1.39c0-.72.06-2,.18-3.84,0-.45.01-1.06.04-1.84.03-.77.05-1.36.05-1.74v-.89l.09-2.68c.06-.36.09-.88.09-1.57.12-.36.18-.89.18-1.61s-.03-1.27-.09-1.57c0-.45-.12-1.09-.36-1.92,0-.38-.06-.94-.18-1.65-.06-.09-.19-.28-.38-.56-.2-.28-.34-.53-.43-.74-.09-.12-.2-.28-.34-.47-.13-.19-.22-.32-.27-.38-.04-.06-.14-.14-.29-.25-.15-.1-.31-.2-.49-.29-.24-.24-.55-.36-.94-.36h-1.07c-.45,0-.88.1-1.3.31-.42.21-.7.37-.85.49-.15.12-.47.48-.96,1.07-.49.59-.77.92-.83.98-.09.06-.4.54-.94,1.43-.03.09-.17.35-.43.78-.25.43-.44.78-.56,1.05l-1.03,1.84c-.12,1.46-.18,3.38-.18,5.77,0,.27-.02.68-.05,1.23-.03.55-.05.95-.05,1.18v4.56l-.27,1.65c-.12.6-.18,1.06-.18,1.39v.27c.12.48.18.9.18,1.25,0,.42-.03,1.08-.09,1.99s-.09,1.6-.09,2.08v2.28c0,.24.01.7.04,1.38.03.69.05,1.22.05,1.61,0,.74-.03,1.27-.09,1.57v1.03c0,.48-.03.78-.09.89,0,.21-.03.54-.09.98-.06.45-.09.82-.09,1.12,0,.15-.01.39-.04.74-.03.34-.05.59-.05.74,0,.3.03.54.09.72,0,.12.02.24.07.36.04.12.09.25.16.38.06.14.1.23.14.29.24.24.63.54,1.18.9.55.36.89.58,1.01.67.09.06.28.17.58.34s.48.29.54.38c.74.45,1.22.85,1.43,1.21Z"/>
    <path class="cls-3" d="m238.7,375.38l-1.92.18c-.12.24-.18.64-.18,1.21v.8c0,.33.01.85.04,1.57.03.72.05,1.27.05,1.65,0,.27-.01.68-.05,1.23-.03.55-.04.96-.04,1.23,0,.3-.01.76-.05,1.39-.03.63-.04,1.09-.04,1.38,0,.21.03.55.09,1.01s.09.8.09,1.01c0,.24-.03.58-.09,1.03s-.09.78-.09.98c0,.3.01.61.04.94.03.33.07.7.11,1.1.05.4.08.72.11.96.06.15.16.28.29.41.14.12.32.23.56.33.24.11.39.17.45.2l.85.63.54.18.72.67c.21.06.51.18.92.36.4.18.71.3.92.36.12.03.42.11.9.25.48.13.82.29,1.03.47-.12.54-.24.94-.36,1.21h-1.83c-.06,0-.18-.04-.36-.11-.18-.07-.33-.13-.45-.16-.06,0-.18.01-.36.05-.18.03-.31.04-.4.04s-.2-.01-.34-.04c-.13-.03-.23-.05-.29-.05-.24,0-.61.05-1.12.14s-.89.14-1.16.14c-.21,0-.53-.05-.96-.14-.43-.09-.76-.14-.96-.14s-.58.03-1.12.09c-.54.06-.97.09-1.3.09h-.45c-.06,0-.17-.03-.34-.09-.16-.06-.29-.09-.38-.09s-.23.01-.43.05c-.2.03-.34.04-.43.04-.06,0-.17-.01-.34-.04-.16-.03-.29-.05-.38-.05s-.22.03-.4.09c-.18.06-.31.09-.4.09h-1.03c-.21,0-.51.01-.92.05-.4.03-.71.05-.92.05l-.54-.18c-.27-.06-.78-.09-1.52-.11-.74-.01-1.22-.04-1.43-.07h-.18c-.09,0-.24.03-.45.09s-.36.09-.45.09h-1.03c-.09,0-.24-.01-.45-.04-.21-.03-.36-.05-.45-.05-.18-.06-.49-.09-.94-.09-.06,0-.16-.01-.31-.05-.15-.03-.25-.04-.31-.04-.21,0-.54.03-.98.09-.45.06-.76.09-.94.09h-1.21c-.3.06-.72.09-1.25.09s-.91-.03-1.21-.09c-.3-.3-.45-.54-.45-.72,0-.36.3-.61.89-.76h.09l.27-.18.49-.27c.09-.03.24-.15.47-.36.22-.21.36-.33.43-.36l.36-.4c.06,0,.13-.03.2-.09.07-.06.13-.09.16-.09.15-.12.32-.27.51-.45.2-.18.4-.39.6-.63.21-.24.36-.4.45-.49.06-.36.15-1.27.27-2.73,0-.21-.01-.53-.04-.96-.03-.43-.05-.75-.05-.96,0-1.28-.06-3.38-.18-6.31v-1.65c0-.3-.03-.75-.09-1.36s-.09-1.05-.09-1.32c0-.06.04-.24.13-.53.09-.3.14-.54.14-.72v-5.5c0-.72.06-1.61.18-2.68,0-.24.02-.54.07-.92.04-.37.07-.66.07-.87.24-3.64.39-6.51.45-8.63v-3.58c0-1.31.03-2.34.09-3.09v-.85c0-.83-.06-2-.18-3.49v-1.16c0-.3-.02-.8-.05-1.5s-.05-1.19-.05-1.45v-.45c0-.24.02-.6.05-1.09s.05-.86.05-1.1v-.58c0-.12-.02-.28-.05-.47-.03-.2-.05-.34-.05-.43,0-.15.03-.4.09-.76.06-.36.09-.63.09-.8,0-.15-.02-.39-.05-.72s-.04-.58-.04-.76c0-.09.01-.2.04-.34.03-.13.05-.23.05-.29v-1.3c0-.65.03-1.16.09-1.52,0-.51-.06-.88-.18-1.12,0-.03-.02-.06-.05-.09-.03-.03-.05-.06-.05-.09-.12-.12-.18-.27-.18-.45s-.1-.37-.31-.58l-.63-.63c-.63-.63-1.12-1.06-1.47-1.3l-.81-.63c-.06-.03-.15-.07-.27-.11-.12-.05-.24-.08-.36-.11-.12-.03-.22-.08-.31-.16-.09-.07-.15-.16-.18-.24v-.18c0-.33.09-.58.27-.76h.22c.06,0,.15-.01.27-.05.12-.03.21-.04.27-.04s.17.01.34.04c.16.03.29.05.38.05h2.95c.12,0,.43.01.94.04.51.03.86.05,1.07.05.12,0,.32-.01.6-.05.28-.03.5-.04.65-.04h2.86c.18-.06.42-.09.72-.09h.76c.24-.06.63-.09,1.16-.09h.27c.12,0,.31.01.56.04.25.03.44.05.56.05h1.57c.54,0,1.32-.05,2.35-.14s1.8-.14,2.3-.14c.39,0,.92.02,1.61.05.68.03,1.19.04,1.52.04h3.22c.3,0,.75.03,1.36.09.61.06,1.07.09,1.36.09h.63s.1-.01.2-.05c.11-.03.17-.04.2-.04h.45c.18,0,.45.01.8.04.36.03.61.05.76.05.3,0,.54-.03.72-.09,1.73-.12,2.77-.18,3.13-.18.48.06,1.15.11,2.01.14s1.54.07,2.01.14h1.38c.12.06.33.09.63.09.06,0,.15.03.27.09.12.06.21.09.27.09.12.06.33.09.63.09,1.16.27,2,.49,2.5.67.12.03.45.18.98.45.54.15.91.27,1.12.36l.89.85h.31l.36.36c.06.06.15.09.27.09,0,.12.03.18.09.18s.12.03.18.09l.09.09.36.18c.06.03.25.21.58.54h.27c.09.06.42.37.98.94l.67.45c.3.42.53.65.72.72.12.27.3.53.54.78.24.25.51.52.8.8.3.28.52.5.67.65.12.24.24.42.36.54l.63.63.13.18c.06.12.09.21.09.27.21.21.36.41.45.58l.27.36s.13.15.29.36.28.39.34.54l1.03,2.41c.03.42.27,1.21.72,2.37,0,.51.06,1.24.18,2.19v.18c.12.72.18,1.36.18,1.92l.09.09c-.06.06-.09.18-.09.36,0,.09.01.24.05.45.03.21.04.34.04.4v3c0,.18-.03.44-.09.78s-.09.6-.09.78c0,.06.01.14.05.22.03.09.04.16.04.22,0,.03-.03.1-.09.2s-.09.17-.09.2c-.06.3-.09.8-.09,1.52l-.72,1.92c-.3,1.01-.51,1.67-.63,1.97-.33.72-.85,1.68-1.57,2.9-.15.24-.76,1.4-1.83,3.49l-.45.36-.76.94-.36.18c-.09.06-.25.2-.49.43-.24.22-.42.38-.54.47l-.63.54c-.06.06-.09.12-.09.18-.27.12-.73.43-1.39.94l-.09.09c-.06.03-.19.09-.38.18-.2.09-.34.18-.43.27-.03,0-.06.03-.09.09-.03.06-.06.09-.09.09l-.27.18c-.39.39-.94.7-1.65.94-.51.24-.85.39-1.03.45l-1.83.67-.27.27c-.39.27-1.09.57-2.1.89-.45.36-.88.61-1.3.76-.12,0-.21.03-.27.09-.03,0-.08.01-.16.04-.07.03-.14.05-.2.05l-.89.27c-.51.09-1.03.24-1.57.45-1.4.12-3.46.18-6.17.18-.24,0-.59.03-1.05.09-.46.06-.81.09-1.05.09-.48,0-1.11-.01-1.9-.04s-1.38-.05-1.77-.05h-.36c-.15,0-.39.02-.72.05s-.58.04-.76.04Zm1.38-2.9h1.12c.15,0,.35-.02.6-.05s.44-.05.56-.05h1.74c.78,0,1.44-.1,2.01-.31.18-.06.48-.09.92-.11.43-.02.77-.07,1.01-.16l.18-.09c.12-.06.28-.09.49-.09,1.16-.45,1.77-.69,1.83-.72l.54-.36s.15-.16.36-.4.39-.42.54-.54c.06-.06.16-.09.31-.09l.8-.63c.65-.65,1.03-1.06,1.12-1.21.33-.33.54-.63.63-.9,0-.03.09-.37.27-1.03.24-.47.36-.8.36-.98.12-.36.18-.64.18-.85l.31-1.83c0-.09-.02-.24-.07-.45-.04-.21-.07-.36-.07-.45,0-.03.1-.25.31-.67,0-.09.01-.19.04-.31.03-.12.05-.22.05-.31v-1.83c0-.18.01-.44.04-.78.03-.34.05-.6.05-.78,0-.3-.01-.75-.05-1.36-.03-.61-.04-1.07-.04-1.36v-2.28s.01-.09.04-.18c.03-.09.05-.16.05-.22-.06-.12-.09-.27-.09-.45v-4.83c0-.15.03-.37.09-.67s.09-.51.09-.63c0-.09-.01-.27-.04-.54-.03-.27-.05-.46-.05-.58s-.03-.29-.09-.51-.09-.38-.09-.47c0-.18.01-.43.04-.76s.05-.57.05-.72c0-.21-.06-.55-.18-1.03-.12-.48-.2-.84-.22-1.07-.03-.15-.05-.37-.07-.67-.01-.3-.04-.57-.07-.83-.03-.26-.07-.49-.14-.7l-.18-.45c-.12-.78-.24-1.3-.36-1.57l-.54-1.3c0-.24-.03-.42-.09-.54l-.27-.27c-.06-.18-.16-.34-.31-.49,0-.12-.03-.21-.09-.27h-.09c-.06-.06-.09-.15-.09-.27-.12-.18-.51-.51-1.16-.98-.15-.15-.34-.28-.58-.41,0-.12-.03-.18-.09-.18-.06-.06-.17-.12-.34-.18s-.29-.12-.38-.18c-.09-.06-.24-.16-.47-.29-.22-.13-.38-.22-.47-.24-.15-.06-.41-.1-.76-.11-.36-.01-.58-.04-.67-.07-.03,0-.13-.05-.31-.14-.18-.09-.33-.14-.45-.14h-.45l-.8-.27c-.24,0-.58.01-1.03.04-.45.03-.72.05-.8.05-.96.12-1.79.18-2.5.18-.3,0-.75.01-1.34.05-.6.03-1.03.04-1.3.04-.06.06-.12.09-.18.09-.69.39-1.12.69-1.3.9-.45.45-.69.73-.72.85-.06.18-.09.48-.09.89v1.12c0,.24.03.6.09,1.07.06.48.09.79.09.94s-.02.39-.05.72-.04.58-.04.76c0,.15.01.39.04.72.03.33.05.57.05.72,0,.12-.03.29-.09.51-.06.22-.09.4-.09.51v1.16l.27,1.48v.58c0,.39-.03.99-.09,1.81-.06.82-.09,1.45-.09,1.9v4.52c0,.21-.03.48-.09.8-.06.33-.09.55-.09.67,0,.06.01.16.05.29.03.13.04.24.04.33v2.73c0,.92-.03,1.57-.09,1.92,0,.06-.01.17-.04.34-.03.16-.05.28-.05.34,0,.3.03.54.09.72l-.36,9.79c-.21.54-.31,1.03-.31,1.48,0,.18.01.47.04.87.03.4.05.7.05.87v.63c0,.27.07.55.22.85.24.06.54.09.89.09.27,0,.65-.03,1.16-.09.51-.06.88-.09,1.12-.09Z"/>
    <path class="cls-3" d="m328.8,396.89c0,.12.01.25.05.38.03.13.04.26.04.38-.06.15-.14.25-.24.31-.11.06-.26.09-.47.11-.21.01-.34.02-.4.02-.48-.12-.78-.18-.89-.18-.12.06-.27.09-.45.09-.06,0-.13-.01-.22-.04-.09-.03-.15-.05-.18-.05h-7.78c-.18,0-.44.01-.78.05-.34.03-.62.04-.83.04-.09-.06-.3-.13-.63-.2-.33-.07-.58-.16-.76-.24l-1.3-.85c-.12-.12-.41-.28-.87-.49-.46-.21-.81-.43-1.05-.67-.12-.12-.33-.3-.63-.56-.3-.25-.52-.48-.67-.67-.15-.19-.3-.43-.45-.69-.27-.27-.45-.49-.54-.67-.03-.06-.07-.18-.14-.36-.06-.18-.13-.33-.2-.45-.07-.12-.17-.24-.29-.36l-.67.8-.45.85-.54.45c-.06.06-.18.27-.36.63l-.67.45c-.06.03-.12.1-.18.22-.06.12-.12.21-.18.27-.54.36-.83.57-.89.63-.15.27-.79.73-1.92,1.39l-1.38.53c-.06,0-.21.06-.45.18-.51.27-1.06.45-1.65.53-.15.06-.67.16-1.57.31-.74.27-1.24.42-1.47.45-.57,0-.97.03-1.21.09h-1.16c-.45,0-.79.03-1.03.09h-2.01c-.54-.06-1.33-.24-2.37-.53-.03,0-.07-.02-.14-.05s-.1-.05-.13-.05c-.3-.15-.82-.28-1.57-.4-.54-.18-.86-.27-.99-.27-.09-.03-.28-.05-.58-.07-.3-.02-.54-.05-.72-.11-.42-.09-.79-.27-1.12-.54-.54,0-1.18-.37-1.92-1.12l-.45-.18-.99-.8-.49-.49c-.33-.3-.6-.48-.8-.54v-.09c-.18-.27-.36-.45-.54-.54-.03,0-.07-.01-.11-.04-.05-.03-.08-.05-.11-.05-.39-.3-.75-.67-1.07-1.12-.03-.06-.09-.2-.18-.43s-.18-.35-.27-.38c-.12-.36-.28-.61-.49-.76v-.09c0-.06-.15-.39-.45-.99l-.18-1.12-.36-1.16c0-.12-.01-.32-.05-.61-.03-.28-.04-.48-.04-.6-.06-.48-.09-1.21-.09-2.19,0-1.28.06-2.16.18-2.64.12-.36.18-.64.18-.85.09-.27.2-.57.34-.92s.25-.65.34-.94c.09-.28.16-.6.22-.96.12-.18.27-.45.47-.83.19-.37.35-.65.47-.83l.18-.36c.06-.09.12-.14.18-.14l.18-.36h.09c.03-.09.14-.26.31-.51.18-.25.3-.47.36-.65.21-.21.33-.34.36-.4.12,0,.18-.09.18-.27l.18-.09c.03-.06.11-.22.25-.47.13-.25.23-.49.29-.69.12-.03.29-.13.51-.29.22-.16.39-.26.51-.29.09-.09.23-.25.43-.49.19-.24.38-.43.56-.58.6-.45.97-.7,1.12-.76.12,0,.36-.12.72-.36.12,0,.21-.06.27-.18l.49-.27.18-.09.89-.45c.65-.33,1.15-.49,1.48-.49h.18l1.03-.63,1.25-.18c.48-.15.73-.24.76-.27.24-.12.39-.18.45-.18l.99-.27c.24-.03.57-.13,1.01-.29.43-.16.71-.26.83-.29.18-.18.64-.27,1.38-.27l1.65-.18c.18,0,.45-.06.81-.18,1.31-.3,2.11-.54,2.41-.72.15,0,.45-.11.9-.34.45-.22.73-.39.85-.51l.72-.54c.18-.12.55-.33,1.12-.63.06-.06.14-.15.24-.27.1-.12.2-.22.27-.31.07-.09.16-.18.27-.27s.2-.15.29-.18c.3-.33.67-.83,1.12-1.52.45-.68.78-1.15.99-1.38l.09-.14.27-.36.85-1.92c.15-.21.27-.57.36-1.07v-1.65s.01-.13.04-.31c.03-.18.05-.33.05-.45s-.01-.28-.05-.49c-.03-.21-.04-.37-.04-.49v-1.21c-.03-.18-.11-.5-.22-.96-.12-.46-.2-.81-.22-1.05l-.54-.8-.76-.67-.36-.18-.27-.27c-.09-.06-.4-.18-.94-.36l-.45-.27c-.18-.06-.94-.24-2.28-.54-.24,0-.55-.07-.94-.2s-.69-.2-.89-.2c-.09,0-.26.05-.51.14s-.43.15-.51.18c-.42,0-.69.03-.8.09-.18.06-.58.27-1.21.63l-.45.18c-.06.03-.3.18-.72.45-.12.09-.31.2-.56.34s-.44.24-.56.34l-.18.18c-.12,0-.18.03-.18.09-.09.03-.2.11-.34.25-.14.13-.23.23-.29.29-.06.09-.18.19-.36.29-.18.1-.28.19-.31.25l-.27.27c-.03.06-.08.14-.16.22-.07.09-.11.15-.11.18-.12.09-.26.27-.4.54-.15.27-.26.45-.31.54-.12.15-.23.32-.34.51-.11.19-.2.4-.29.63-.09.22-.17.39-.22.51-.09.06-.33.43-.72,1.12-.03.06-.11.21-.22.45-.12.24-.2.42-.22.53,0,.12.01.33.05.63.03.3.04.52.04.67,0,.12-.04.34-.11.65s-.11.53-.11.65c0,.24.05.57.16.99.1.42.16.65.16.72.06.12.09.31.09.58.06.18.19.37.38.58.19.21.3.4.33.58.06.06.09.2.09.4v.27c0,.12-.05.23-.14.34-.09.11-.18.18-.27.22-.09.05-.24.11-.45.18-.21.07-.36.13-.45.16-.06,0-.16.01-.31.04-.15.03-.25.05-.31.05-.24,0-.57-.04-.98-.11-.42-.07-.7-.13-.85-.16-.6-.12-1.12-.18-1.57-.18-.18-.03-.6-.18-1.25-.45-.45,0-.79-.12-1.03-.36-.12,0-.18-.07-.18-.22l-.27-.18-1.03-.72c-.24-.12-.39-.24-.45-.36-.06-.03-.12-.09-.18-.18-.06-.09-.12-.15-.18-.18-.33-.33-.51-.52-.54-.58-.06-.06-.09-.15-.09-.27-.33-.33-.58-.85-.76-1.57-.36-.72-.54-1.1-.54-1.16s.01-.16.04-.31c.03-.15.05-.27.05-.36,0-.06-.01-.16-.05-.31-.03-.15-.04-.25-.04-.31,0-.18.07-.46.2-.85s.22-.63.25-.72l.36-1.16c.09-.27.19-.49.31-.67.21-.33.36-.65.45-.99.09-.15.3-.35.65-.6.34-.25.55-.48.61-.69.12-.12.3-.26.56-.43s.41-.29.47-.38c.18-.36.3-.55.36-.58l1.65-.89c.3-.15.85-.49,1.65-1.03l2.01-.63c.06-.03.32-.16.78-.38s.81-.36,1.05-.43h.89c.09,0,.22-.05.4-.16.18-.1.3-.16.36-.16h.45c.18,0,.3-.03.36-.09.36-.12.61-.18.76-.18.27-.21.68-.36,1.25-.45h.36s.08-.01.16-.05c.07-.03.13-.04.16-.04.45-.12,1.44-.24,3-.36.15,0,.37-.03.67-.09.3-.06.51-.09.63-.09,1.64.15,2.49.24,2.55.27l1.21.27h.8c.15,0,.36.04.63.13.27.09.49.14.67.14.03,0,.07-.01.14-.05.06-.03.1-.04.13-.04,1.22,0,2.27.34,3.13,1.03.51,0,1.06.18,1.65.54l.09.09c.12,0,.21.03.27.09l.45.36c.6.45.97.79,1.12,1.03.24,0,.54.12.9.36.33.33,1.03.78,2.12,1.36s1.87,1.17,2.35,1.77v.18c.12.15.61.66,1.48,1.52.12.39.41.76.87,1.12.46.36.75.7.87,1.03l.72.98c.09.18.22.36.4.54l.36,1.3s.07.14.11.31c.05.18.1.31.16.4.15.42.27.85.36,1.3-.06.3-.09.79-.09,1.48,0,.8.03,1.38.09,1.74.12.24.18.42.18.54v.72c.03.06.07.16.14.29s.11.26.16.38c.05.12.07.24.07.36v2.19c0,.09.04.2.11.34.07.14.11.23.11.29,0,.03-.05.15-.16.36s-.16.37-.16.49v.63c0,.8.03,1.39.09,1.74-.12.48-.18.79-.18.94,0,.24.06.6.18,1.07v2.86c0,.09.04.23.11.43.07.2.11.35.11.47.06.12.09.27.09.45,0,.12-.07.55-.22,1.3,0,.12.02.3.07.56.05.25.07.44.07.56v2.01c0,.27.01.64.04,1.12.03.48.05.81.05.99,0,.12-.02.3-.05.54s-.04.42-.04.53v.58c0,.65.03,1.1.09,1.34v.94c.12.36.18.63.18.8,0,.63-.03,1.12-.09,1.48v.85c0,.09-.01.21-.05.36-.03.15-.04.27-.04.36,0,.12.03.49.09,1.12s.09,1.07.09,1.34v.36c.15.6.42,1.09.8,1.48.06.06.09.12.09.18,0,.15.12.34.36.58.06.06.16.12.31.18l.27.09c.06.03.14.11.22.22s.16.2.22.22c.06.06.19.13.4.2s.37.16.49.24c.09.03.21.07.36.11.15.05.28.1.38.16s.2.15.29.27Zm-23.34-5.45c.06-.06.27-.22.63-.49.36-.27.57-.48.63-.63l.09-.09c.06-.06.2-.3.4-.72l.54-2.33c0-.06.06-.21.18-.45v-.36c0-.15-.01-.37-.04-.67-.03-.3-.05-.53-.05-.72v-.27c0-.06.01-.16.05-.31.03-.15.04-.25.04-.31v-.85c.03-.09.12-.57.27-1.43,0-.03-.01-.1-.05-.22-.03-.12-.04-.21-.04-.27,0-.03.01-.1.04-.2.03-.1.05-.19.05-.25-.06-.48-.09-1.24-.09-2.28v-.94c0-.77-.03-1.28-.09-1.52.12-.24.18-.4.18-.49v-.9c0-.15.03-.36.09-.65.06-.28.09-.5.09-.65v-.27c0-.09-.01-.25-.04-.49-.03-.24-.05-.4-.05-.49,0-.15.01-.36.05-.65.03-.28.04-.5.04-.65s-.03-.39-.09-.72-.09-.55-.09-.67c0-.15.04-.42.14-.8.09-.39.13-.61.13-.67v-.89c0-.39.03-.67.09-.85,0-.3.06-.63.18-.98,0-.21-.02-.4-.05-.58-.03-.18-.04-.33-.04-.45,0-.06.01-.22.04-.49.03-.27.05-.49.05-.67v-.36c0-.33-.12-.52-.36-.58-.18,0-.27.06-.27.18-.06.06-.19.18-.38.36-.19.18-.36.35-.51.51s-.28.3-.4.43c-.09.15-.28.35-.58.6s-.49.43-.58.51c-.03.06-.12.13-.27.2s-.25.16-.31.25c-.18.06-.4.17-.67.33-.27.17-.43.26-.49.29l-.85.45c-.24.06-.49.15-.74.27-.26.12-.56.29-.92.51-.36.22-.6.36-.72.43l-1.3.8c-.27.24-.65.52-1.16.85-.06.06-.15.12-.27.18-.12.06-.21.12-.27.18-.15.24-.55.52-1.21.85-.03.03-.07.1-.11.2-.04.1-.09.19-.16.25l-.54.45-.4.45c0,.12-.03.18-.09.18l-.18.18c-.69.96-1.12,1.61-1.3,1.97-.18.36-.27.75-.27,1.16-.09.06-.27.43-.54,1.12-.06.06-.12.09-.18.09,0,.09-.02.2-.05.34s-.05.23-.05.29c0,.15.02.4.05.74.03.34.05.59.05.74,0,.12-.06.24-.18.36v.63c-.18.53-.27.85-.27.94v.72c0,.06-.01.16-.05.29-.03.13-.04.23-.04.29-.12.6-.18,1.01-.18,1.25v.27c0,.63.03,1.09.09,1.39,0,.21.03.48.09.8.06.33.09.55.09.67v.89c0,.09.01.24.05.47.03.22.04.38.04.47l.27.8v.45c0,.21.03.37.09.49,0,.09.01.22.04.4s.05.31.05.4c.03.12.05.37.07.76s.05.65.11.8c.09.27.4.67.94,1.21.63.75,1.24,1.28,1.83,1.61.06,0,.14-.01.22-.05.09-.03.16-.04.22-.04.18,0,.44.05.78.16.34.11.55.16.6.16l1.7-.41,1.48-.18c.21,0,.43-.06.67-.18.09-.06.22-.11.4-.16.18-.04.28-.08.31-.11.12,0,.24-.06.36-.18.68-.36,1.3-.85,1.83-1.48.24-.12.61-.45,1.12-.98Z"/>
    <path class="cls-3" d="m348.66,382.89v.09c0,.06-.04.17-.11.34s-.13.28-.16.33c-.42.84-.69,1.34-.8,1.52-.36,1.07-.61,2.12-.76,3.13-.12.36-.18.69-.18.99,0,.45.06.79.18,1.03,0,.06.01.15.04.27.03.12.05.21.05.27l.27,1.21s.02.07.05.14.05.1.05.13v.09c.21.54.52,1.09.94,1.65.42.48.82.82,1.21,1.03.18.12.45.22.83.31.37.09.81.18,1.32.27.51.09.88.16,1.12.22.09,0,.31.04.67.13.36.09.63.14.8.14.18.06.52.09,1.03.09,1.01,0,2.13-.27,3.35-.8.54-.36.94-.58,1.21-.67.63-.3,1.03-.69,1.21-1.16l.63-1.12c.15-.15.27-.42.36-.81.3-.68.45-1.41.45-2.19,0-.51-.09-.94-.27-1.3-.03-.06-.21-.43-.54-1.12l-.8-1.07c0-.18-.11-.37-.31-.58l-.72-.54c-.39-.27-1.03-.79-1.92-1.57l-.36-.27c-.06-.06-.2-.14-.43-.25-.22-.1-.4-.2-.51-.29-.3-.09-.72-.34-1.28-.74s-.92-.65-1.09-.74c-.18-.15-.45-.3-.8-.47-.36-.16-.58-.28-.67-.34-.12,0-.42-.12-.89-.36-1.37-.81-2.24-1.36-2.59-1.65-.06-.06-.19-.15-.38-.27-.2-.12-.37-.24-.54-.36-.16-.12-.25-.2-.25-.22-.51-.12-1.18-.46-2.03-1.03s-1.45-.92-1.81-1.07c-.18-.18-.91-.45-2.19-.8-.33-.3-.99-.76-1.97-1.39-.99-.62-1.67-1.17-2.06-1.65-.45-.15-1.12-.67-2.01-1.56-.03-.06-.11-.14-.25-.25-.13-.1-.22-.17-.24-.2-.06-.06-.16-.19-.29-.38-.14-.2-.25-.34-.34-.43-.27-.12-.48-.34-.63-.67-.27-.27-.67-.94-1.21-2.01v-.09c0-.12-.12-.3-.36-.54l-.58-.94s-.12-.54-.27-1.52v-.18c0-.21-.06-.49-.18-.85-.03-.12-.06-.57-.09-1.36-.03-.79-.15-1.41-.36-1.86,0-.03.01-.06.05-.09.03-.03.05-.06.05-.09.36-.72.53-1.38.53-2.01,0-.24.04-.53.11-.87.07-.34.13-.57.16-.69.06-.3.25-.72.58-1.25l.18-.36c.06-.09.11-.18.14-.27s.05-.19.07-.31c.02-.12.04-.21.07-.27.12-.24.36-.6.72-1.07.48-.92,1.19-1.73,2.15-2.41l.72-.81c.15-.06.35-.2.6-.42.25-.22.41-.36.47-.43.3-.12.73-.4,1.3-.85s.97-.73,1.21-.85c.12,0,.18-.04.18-.14.06-.03.18-.11.36-.24.18-.14.33-.23.45-.29.15-.15.49-.32,1.03-.51.54-.2.92-.38,1.16-.56.36,0,1.28-.19,2.77-.58.69,0,1.15-.06,1.39-.18.12,0,.3-.06.53-.18l.54-.27c.3-.06.82-.09,1.57-.09.89-.18,1.36-.27,1.39-.27h2.19c.24-.06.6-.09,1.07-.09h1.03c.18,0,.44.03.78.09.34.06.61.09.78.09h1.48c.09,0,.24.03.45.09.21.06.36.09.45.09h.94c.09,0,.22.03.4.09s.31.09.4.09c.57,0,1,.03,1.3.09.51.21,1.04.36,1.61.45.63.12,1.46.43,2.5.94.15.12.7.42,1.65.89l1.34.67c.24.09.7.39,1.38.9l.63.54s.07.1.2.22c.14.12.31.28.54.47.22.19.41.36.56.51,0,.03.1.19.31.49.21.3.34.48.4.54.12.39.37.89.76,1.52-.06.18-.09.43-.09.76v.8c0,.27-.06.64-.18,1.12l-.36.9c-.03.21-.13.51-.29.89s-.26.67-.29.85c-.15.12-.3.35-.47.69-.17.34-.31.57-.43.69-.09.09-.46.27-1.12.54-.45.3-.75.45-.9.45l-2.1.94c-.96.24-1.67.36-2.15.36-.18.06-.51.09-.98.09-.12,0-.3-.01-.54-.04s-.4-.05-.49-.05c-1.94-.15-2.97-.24-3.09-.27-.06-.03-.16-.06-.29-.09-.13-.03-.22-.06-.24-.09-.06,0-.52-.18-1.39-.53l-1.74-.67s-.29-.14-.78-.31c-.49-.18-.84-.34-1.05-.49-.42-.15-.87-.39-1.36-.74-.49-.34-.74-.71-.74-1.09,0-.18.03-.3.09-.36.03-.12.21-.34.54-.67.09-.09.29-.16.6-.2.31-.05.51-.1.6-.16.66-.33,1.15-.63,1.48-.89.18-.12.38-.29.6-.51.22-.22.4-.43.54-.6.14-.18.32-.43.56-.76s.4-.54.49-.63c.3-.59.45-1.24.45-1.92,0-.24-.03-.39-.09-.45l-.36-.63c-.06-.06-.22-.19-.49-.4-.27-.21-.45-.39-.54-.54l-1.07-.98c-.51-.45-1.22-.67-2.15-.67-.54.06-1.27.09-2.19.09-.53.03-1.03.19-1.5.47-.46.28-.95.66-1.45,1.14-.51.48-.89.8-1.16.98-.06.18-.22.45-.47.83-.26.37-.43.68-.51.92l-.49,1.43v1.92c0,.95.16,1.76.49,2.41,0,.03.03.11.09.25.06.14.12.26.18.38.06.03.14.11.22.22.09.12.16.2.22.22l1.38,1.48c.06.21.33.49.81.85.15.15.42.37.83.67.4.3.68.52.83.67.15.03.45.17.89.42.45.26.82.4,1.12.43.57.42,1.21.78,1.92,1.07.09.06.24.14.45.22s.34.16.4.22c.27.06.54.22.8.49.21.06.52.2.94.43.42.22.72.38.9.47l.98.45c.33,0,1.1.3,2.33.92,1.22.61,2.04,1.08,2.46,1.41.36.12.54.24.54.36.38.27.91.54,1.57.83.65.28,1.17.56,1.56.83.27.18.61.4,1.01.67.4.27.73.49.98.65s.55.39.89.67c.34.28.7.59,1.05.92.48.21,1.12.85,1.92,1.92l.18.27c0,.06.04.13.11.22.07.09.13.18.16.27,0,.18.06.33.18.45.09.15.2.4.33.74.14.34.25.59.34.74.06.18.16.4.29.67.14.27.24.5.31.69.07.2.11.35.11.47l.27,1.07c.03.09.07.21.11.36.05.15.08.28.11.38.03.1.05.2.05.29v.8c0,.3.03.51.09.63.06.36.09.85.09,1.48,0,.12-.01.32-.04.6-.03.28-.05.49-.05.6-.12.48-.18.84-.18,1.07l-.27,1.65c-.18.63-.48,1.36-.89,2.19-.06.12-.18.39-.36.83-.18.43-.37.8-.56,1.12-.2.31-.44.62-.74.92-.12.12-.26.28-.43.47-.16.2-.31.35-.45.47-.14.12-.28.24-.43.36-.03.03-.16.14-.4.34-.24.2-.43.32-.58.38-.09.06-.54.34-1.36.83-.82.49-1.41.92-1.77,1.28-.09.09-.3.22-.65.4-.34.18-.59.33-.74.45l-.54.27c-.12,0-.3.06-.54.18l-2.77.98c-.24,0-.65.12-1.25.36-.8.15-1.65.27-2.52.38-.88.1-2.01.22-3.38.34-1.37.12-2.25.19-2.64.22h-3.49c-.09,0-.94-.09-2.55-.27h-.72c-.33,0-.55-.03-.67-.09-.15,0-.35-.03-.6-.09-.26-.06-.44-.09-.56-.09h-.94c-.42,0-.72-.03-.89-.09l-1.74-.31c-.27,0-.7-.07-1.28-.22s-1.02-.22-1.32-.22c-.3-.09-.97-.33-2.01-.72-.09-.06-.79-.49-2.1-1.3l-.36-.18c-.63-.51-1.24-1.12-1.83-1.83l-.36-.36-.94-.8c-.3-.3-.97-1.37-2.01-3.22-.15-.24-.32-.67-.51-1.3-.2-.63-.29-1.09-.29-1.39-.06-.3-.09-.83-.09-1.61v-1.12c0-.69.06-1.18.18-1.48.21-.65.39-1.19.56-1.59s.49-.87.99-1.41,1.11-.97,1.86-1.3c1.58-.62,3.65-.94,6.22-.94,1.82,0,3.74.49,5.77,1.47.83.42,1.52.86,2.06,1.34s1.25,1.22,2.15,2.24Z"/>
    <path class="cls-3" d="m398.29,382.89v.09c0,.06-.04.17-.11.34s-.13.28-.16.33c-.42.84-.69,1.34-.8,1.52-.36,1.07-.61,2.12-.76,3.13-.12.36-.18.69-.18.99,0,.45.06.79.18,1.03,0,.06.01.15.04.27.03.12.05.21.05.27l.27,1.21s.02.07.05.14.05.1.05.13v.09c.21.54.52,1.09.94,1.65.42.48.82.82,1.21,1.03.18.12.45.22.83.31.37.09.81.18,1.32.27.51.09.88.16,1.12.22.09,0,.31.04.67.13.36.09.63.14.8.14.18.06.52.09,1.03.09,1.01,0,2.13-.27,3.35-.8.54-.36.94-.58,1.21-.67.63-.3,1.03-.69,1.21-1.16l.63-1.12c.15-.15.27-.42.36-.81.3-.68.45-1.41.45-2.19,0-.51-.09-.94-.27-1.3-.03-.06-.21-.43-.54-1.12l-.8-1.07c0-.18-.11-.37-.31-.58l-.72-.54c-.39-.27-1.03-.79-1.92-1.57l-.36-.27c-.06-.06-.2-.14-.43-.25-.22-.1-.4-.2-.51-.29-.3-.09-.72-.34-1.28-.74s-.92-.65-1.09-.74c-.18-.15-.45-.3-.8-.47-.36-.16-.58-.28-.67-.34-.12,0-.42-.12-.89-.36-1.37-.81-2.24-1.36-2.59-1.65-.06-.06-.19-.15-.38-.27-.2-.12-.37-.24-.54-.36-.16-.12-.25-.2-.25-.22-.51-.12-1.18-.46-2.03-1.03s-1.45-.92-1.81-1.07c-.18-.18-.91-.45-2.19-.8-.33-.3-.99-.76-1.97-1.39-.99-.62-1.67-1.17-2.06-1.65-.45-.15-1.12-.67-2.01-1.56-.03-.06-.11-.14-.25-.25-.13-.1-.22-.17-.24-.2-.06-.06-.16-.19-.29-.38-.14-.2-.25-.34-.34-.43-.27-.12-.48-.34-.63-.67-.27-.27-.67-.94-1.21-2.01v-.09c0-.12-.12-.3-.36-.54l-.58-.94s-.12-.54-.27-1.52v-.18c0-.21-.06-.49-.18-.85-.03-.12-.06-.57-.09-1.36-.03-.79-.15-1.41-.36-1.86,0-.03.01-.06.05-.09.03-.03.05-.06.05-.09.36-.72.53-1.38.53-2.01,0-.24.04-.53.11-.87.07-.34.13-.57.16-.69.06-.3.25-.72.58-1.25l.18-.36c.06-.09.11-.18.14-.27s.05-.19.07-.31c.02-.12.04-.21.07-.27.12-.24.36-.6.72-1.07.48-.92,1.19-1.73,2.15-2.41l.72-.81c.15-.06.35-.2.6-.42.25-.22.41-.36.47-.43.3-.12.73-.4,1.3-.85s.97-.73,1.21-.85c.12,0,.18-.04.18-.14.06-.03.18-.11.36-.24.18-.14.33-.23.45-.29.15-.15.49-.32,1.03-.51.54-.2.92-.38,1.16-.56.36,0,1.28-.19,2.77-.58.69,0,1.15-.06,1.39-.18.12,0,.3-.06.53-.18l.54-.27c.3-.06.82-.09,1.57-.09.89-.18,1.36-.27,1.39-.27h2.19c.24-.06.6-.09,1.07-.09h1.03c.18,0,.44.03.78.09.34.06.61.09.78.09h1.48c.09,0,.24.03.45.09.21.06.36.09.45.09h.94c.09,0,.22.03.4.09s.31.09.4.09c.57,0,1,.03,1.3.09.51.21,1.04.36,1.61.45.63.12,1.46.43,2.5.94.15.12.7.42,1.65.89l1.34.67c.24.09.7.39,1.38.9l.63.54s.07.1.2.22c.14.12.31.28.54.47.22.19.41.36.56.51,0,.03.1.19.31.49.21.3.34.48.4.54.12.39.37.89.76,1.52-.06.18-.09.43-.09.76v.8c0,.27-.06.64-.18,1.12l-.36.9c-.03.21-.13.51-.29.89s-.26.67-.29.85c-.15.12-.3.35-.47.69-.17.34-.31.57-.43.69-.09.09-.46.27-1.12.54-.45.3-.75.45-.9.45l-2.1.94c-.96.24-1.67.36-2.15.36-.18.06-.51.09-.98.09-.12,0-.3-.01-.54-.04s-.4-.05-.49-.05c-1.94-.15-2.97-.24-3.09-.27-.06-.03-.16-.06-.29-.09-.13-.03-.22-.06-.24-.09-.06,0-.52-.18-1.39-.53l-1.74-.67s-.29-.14-.78-.31c-.49-.18-.84-.34-1.05-.49-.42-.15-.87-.39-1.36-.74-.49-.34-.74-.71-.74-1.09,0-.18.03-.3.09-.36.03-.12.21-.34.54-.67.09-.09.29-.16.6-.2.31-.05.51-.1.6-.16.66-.33,1.15-.63,1.48-.89.18-.12.38-.29.6-.51.22-.22.4-.43.54-.6.14-.18.32-.43.56-.76s.4-.54.49-.63c.3-.59.45-1.24.45-1.92,0-.24-.03-.39-.09-.45l-.36-.63c-.06-.06-.22-.19-.49-.4-.27-.21-.45-.39-.54-.54l-1.07-.98c-.51-.45-1.22-.67-2.15-.67-.54.06-1.27.09-2.19.09-.53.03-1.03.19-1.5.47-.46.28-.95.66-1.45,1.14-.51.48-.89.8-1.16.98-.06.18-.22.45-.47.83-.26.37-.43.68-.51.92l-.49,1.43v1.92c0,.95.16,1.76.49,2.41,0,.03.03.11.09.25.06.14.12.26.18.38.06.03.14.11.22.22.09.12.16.2.22.22l1.38,1.48c.06.21.33.49.81.85.15.15.42.37.83.67.4.3.68.52.83.67.15.03.45.17.89.42.45.26.82.4,1.12.43.57.42,1.21.78,1.92,1.07.09.06.24.14.45.22s.34.16.4.22c.27.06.54.22.8.49.21.06.52.2.94.43.42.22.72.38.9.47l.98.45c.33,0,1.1.3,2.33.92,1.22.61,2.04,1.08,2.46,1.41.36.12.54.24.54.36.38.27.91.54,1.57.83.65.28,1.17.56,1.56.83.27.18.61.4,1.01.67.4.27.73.49.98.65s.55.39.89.67c.34.28.7.59,1.05.92.48.21,1.12.85,1.92,1.92l.18.27c0,.06.04.13.11.22.07.09.13.18.16.27,0,.18.06.33.18.45.09.15.2.4.33.74.14.34.25.59.34.74.06.18.16.4.29.67.14.27.24.5.31.69.07.2.11.35.11.47l.27,1.07c.03.09.07.21.11.36.05.15.08.28.11.38.03.1.05.2.05.29v.8c0,.3.03.51.09.63.06.36.09.85.09,1.48,0,.12-.01.32-.04.6-.03.28-.05.49-.05.6-.12.48-.18.84-.18,1.07l-.27,1.65c-.18.63-.48,1.36-.89,2.19-.06.12-.18.39-.36.83-.18.43-.37.8-.56,1.12-.2.31-.44.62-.74.92-.12.12-.26.28-.43.47-.16.2-.31.35-.45.47-.14.12-.28.24-.43.36-.03.03-.16.14-.4.34-.24.2-.43.32-.58.38-.09.06-.54.34-1.36.83-.82.49-1.41.92-1.77,1.28-.09.09-.3.22-.65.4-.34.18-.59.33-.74.45l-.54.27c-.12,0-.3.06-.54.18l-2.77.98c-.24,0-.65.12-1.25.36-.8.15-1.65.27-2.52.38-.88.1-2.01.22-3.38.34-1.37.12-2.25.19-2.64.22h-3.49c-.09,0-.94-.09-2.55-.27h-.72c-.33,0-.55-.03-.67-.09-.15,0-.35-.03-.6-.09-.26-.06-.44-.09-.56-.09h-.94c-.42,0-.72-.03-.89-.09l-1.74-.31c-.27,0-.7-.07-1.28-.22s-1.02-.22-1.32-.22c-.3-.09-.97-.33-2.01-.72-.09-.06-.79-.49-2.1-1.3l-.36-.18c-.63-.51-1.24-1.12-1.83-1.83l-.36-.36-.94-.8c-.3-.3-.97-1.37-2.01-3.22-.15-.24-.32-.67-.51-1.3-.2-.63-.29-1.09-.29-1.39-.06-.3-.09-.83-.09-1.61v-1.12c0-.69.06-1.18.18-1.48.21-.65.39-1.19.56-1.59s.49-.87.99-1.41,1.11-.97,1.86-1.3c1.58-.62,3.65-.94,6.22-.94,1.82,0,3.74.49,5.77,1.47.83.42,1.52.86,2.06,1.34s1.25,1.22,2.15,2.24Z"/>
    <path class="cls-3" d="m432.15,384.28c-.06-.03-.11-.1-.14-.22-.03-.12-.07-.22-.14-.31-.78-1.34-1.51-3.05-2.19-5.14,0-.03-.01-.09-.04-.18-.03-.09-.05-.15-.05-.18-.12-1.55-.36-2.59-.72-3.13v-.27l-.04-.81c-.03-.51-.05-1.09-.05-1.74,0-1.22.03-2.3.09-3.22.12-.47.18-.88.18-1.21l.36-1.34c.18-.45.33-.97.45-1.57.53-1.49.88-2.56,1.03-3.22.09-.38.28-.88.58-1.47.3-.6.49-1.01.58-1.25.3-.6.52-.97.67-1.12.39-.78.69-1.27.89-1.48l.27-.54c0-.06.04-.16.13-.31.09-.15.2-.33.31-.54.12-.21.2-.36.22-.45.12-.12.24-.3.36-.54.18-.33.34-.57.47-.74.14-.16.36-.4.69-.72.33-.31.55-.53.67-.65.63-.8,1.21-1.36,1.74-1.65l1.16-1.12c.24-.24.67-.57,1.3-.98.63-.42,1.09-.79,1.39-1.12.3-.03.63-.16,1.01-.38s.57-.34.6-.34l1.57-.72c.12-.03.29-.11.51-.24.22-.14.36-.22.43-.25.12-.06.31-.12.58-.18.27-.06.46-.12.58-.18.06-.03.22-.12.47-.27s.44-.24.56-.27c1.31-.24,2.89-.7,4.74-1.39.57-.09,1.09-.21,1.57-.36.24-.06.65-.12,1.23-.18.58-.06,1.01-.12,1.28-.18.36-.12.63-.18.8-.18h1.57c.3.06.94.09,1.92.09h1.07c.12,0,.38.04.8.14.42.09.73.13.94.13h.36l.67.27c.09.03.35.07.78.11.43.04.75.09.96.16.12.03.35.11.69.22s.6.2.78.22l1.52.4c.42.21.64.33.67.36.3.12.75.36,1.34.72.6.36,1.06.61,1.39.76.06.06.23.14.51.25.28.1.49.2.6.29,0,.06.18.2.54.43.36.22.74.46,1.16.72.42.25.67.45.76.6.18.09.43.24.74.45.31.21.56.36.74.45.03.03.1.06.22.09.12.03.19.06.22.09.51.21,1.02.63,1.54,1.25.52.62.92,1.04,1.18,1.25.06.06.2.23.41.51.21.28.38.47.53.56.06.09.29.38.7.87.4.49.74.93,1.01,1.32.27.39.46.7.58.94.06.15.18.36.36.63.18.27.3.48.36.63.18.39.45.88.81,1.47.36.6.61,1.03.76,1.3.09.15.31.76.67,1.83.51,1.25.86,2.65,1.07,4.2v1.12c0,.6.03.99.09,1.16v2.01c0,.69-.03,1.24-.09,1.65l-.18,1.57c-.03.24-.21,1.19-.54,2.86-.03.15-.09.34-.18.58s-.15.43-.18.58c-.06.21-.16.63-.31,1.25-.15.62-.3,1.13-.45,1.52-.12.24-.18.45-.18.63l-.54,1.65c-.33.57-.58,1.15-.76,1.74-.03.03-.16.24-.38.65-.22.4-.34.71-.34.92-.42.83-1,1.62-1.74,2.37l-.8.98c-.09.24-.82,1.05-2.19,2.42-.18.18-.49.43-.92.76-.43.33-.74.58-.92.76-.39.51-.88,1-1.48,1.48-.18.18-.52.36-1.03.54l-.54.49-1.47.89c-.18.18-.3.27-.36.27-.18.15-.73.37-1.65.67-.06.03-.22.11-.47.22-.26.12-.46.2-.61.22l-1.12.18-.89.27c-.39.15-1.1.3-2.15.47-1.05.16-1.74.32-2.1.47-.09.03-.4.09-.94.18s-.92.21-1.16.36c-.12,0-.37.01-.76.05-.39.03-.66.04-.8.04h-1.7c-.3,0-.72-.05-1.25-.16-.54-.11-.89-.17-1.07-.2l-1.25-.18-1.03-.31c-.15-.03-.37-.07-.67-.11-.3-.05-.57-.1-.83-.16s-.49-.15-.69-.27l-1.03-.27c-.09-.03-.25-.05-.47-.07s-.41-.04-.56-.07c-.15-.03-.28-.11-.4-.22l-.36-.18c-.21-.06-.59-.16-1.14-.29-.55-.13-1.04-.27-1.45-.42s-.74-.34-.98-.58l-2.68-1.38c-.24-.21-.82-.54-1.74-.99-.09-.06-.43-.34-1.01-.83-.58-.49-1.03-.83-1.36-1.01-.33,0-.67-.25-1.03-.74-.36-.49-.65-.77-.89-.83-.24-.12-.73-.55-1.48-1.3-.15-.03-.3-.19-.47-.47-.16-.28-.28-.45-.34-.51-.69-.69-1.12-1.21-1.3-1.57-.12-.24-.4-.6-.83-1.09-.43-.49-.74-.89-.92-1.19Zm36.08,6.39c.09-.09.2-.27.31-.56.12-.28.24-.49.36-.6.03-.03.12-.61.27-1.74,0-.03.01-.06.05-.09.03-.03.04-.06.04-.09.12-.48.18-.88.18-1.21v-.72c0-.33.03-.61.09-.85,0-.18.06-.45.18-.8,0-.21.01-.47.05-.78.03-.31.04-.54.04-.69.06-.3.09-.82.09-1.57,0-.3.03-.72.09-1.25.06-.53.09-.94.09-1.21,0-.09-.03-.23-.09-.43-.06-.19-.09-.34-.09-.43,0-.12.03-.3.09-.53s.09-.42.09-.54l.18-3.76v-.18c-.12-.95-.18-1.68-.18-2.19,0-.06.01-.16.04-.29s.05-.23.05-.29v-1.74c0-.21.03-.52.09-.94.06-.42.09-.72.09-.9v-.27c0-.12-.01-.3-.05-.54-.03-.24-.04-.42-.04-.54-.06-.3-.09-.76-.09-1.38v-1.21c0-.18-.02-.43-.05-.76s-.04-.58-.04-.76v-1.03c0-1.97-.27-4.1-.81-6.39-.12-.12-.24-.3-.38-.56-.14-.25-.26-.53-.38-.85-.12-.31-.21-.51-.27-.61-.12-.27-.32-.63-.6-1.07-.28-.45-.47-.79-.56-1.03-.03-.09-.2-.28-.49-.58-.18-.24-.45-.48-.8-.72-.27-.3-.94-.79-2.01-1.47-.33-.09-.58-.24-.76-.45-.72-.45-1.83-.67-3.36-.67-.36.09-.76.14-1.21.14h-1.07c-.45,0-.76.03-.94.09-.45.09-.88.24-1.3.45-.27.06-.54.19-.8.38-.27.2-.45.31-.54.34l-.58.18-1.16.94c-.15.15-.32.4-.51.74-.2.34-.36.59-.51.74l-.63.72c-.06.36-.21.82-.45,1.39-.09.15-.19.39-.31.72l-.63,1.3-.53,1.34c0,.06-.18.89-.54,2.5,0,.03-.07.27-.22.72-.06.12-.09.27-.09.45v.49c-.12.83-.18,1.44-.18,1.83-.03.24-.09.53-.18.87-.09.34-.15.56-.18.65s-.05.31-.07.65c-.02.34-.05.59-.11.74,0,.09-.02.22-.05.38s-.04.28-.04.34c0,.27-.03.63-.09,1.09-.06.46-.09.81-.09,1.05v.99c0,.12-.01.29-.04.51-.03.22-.05.39-.05.51v1.83c0,.24.01.61.05,1.12.03.51.04.9.04,1.16v2.1c.18.89.27,1.51.27,1.83.06.54.09,1.27.09,2.19,0,.68.03,1.18.09,1.47v.63c0,.09.01.2.05.34.03.14.04.23.04.29.06.15.11.43.16.83.04.4.11.71.2.92.03.18.07.37.13.58.06.21.14.43.25.65.1.22.17.4.2.51,0,.27.03.49.09.67.09.18.23.56.43,1.14.19.58.38,1.02.56,1.32.03.09.1.21.22.36.12.15.19.27.22.36.03.06.14.34.31.85.36.36.69.84.99,1.43.63.36,1.06.79,1.3,1.3.12.12.28.29.49.51.21.22.37.36.49.43l.49.36c.18.15.43.29.74.43s.51.23.6.29c.18.18.34.27.49.27.6.3,1.33.49,2.19.58l1.34.27c.18.06.4.09.67.09.36,0,.62-.03.8-.09l1.38-.18c.95-.39,1.45-.58,1.48-.58.8-.39,1.25-.63,1.34-.72.36-.15.79-.45,1.3-.9.51-.45.85-.73,1.03-.85.09-.18.27-.46.56-.85s.49-.69.6-.9Z"/>
  </g>
  <g>
    <path class="cls-1" d="m9.3,432.38v18.69c0,5.71,2.65,8.63,7.77,8.63s7.82-2.92,7.82-8.63l-.05-18.69h5.62v19.68c0,8.45-4.54,12.8-13.39,12.8s-13.39-4.36-13.39-12.8v-19.68h5.62Z"/>
    <path class="cls-1" d="m66.01,450.17c0-2.34-1.8-4.13-4.54-4.13-3.19,0-5.08,1.13-5.08,4.13v14.24h-4.99s.04-9.97,0-14.24c0-2.29-1.8-4.13-4.36-4.13-3.01,0-4.94,1.08-4.94,3.86v14.51h-4.99v-23.45h4.99v2.47c1.74-1.77,4.31-2.69,6.96-2.69,2.89,0,5.14,1.38,6.35,4.08,1.61-2.61,4.58-4.08,7.94-4.08,4.63,0,7.68,3.19,7.68,9.44v14.24h-5.03s.04-9.97,0-14.24Z"/>
    <path class="cls-1" d="m110.56,461.81c-1.03,1.84-3.86,3.05-7.68,3.05-8.18,0-13.66-3.77-13.66-12.17s5.75-12.13,13.3-12.13c4.4,0,7.05,1.57,8.04,2.83l-.14,4.09c-3.01-2.02-3.77-3.01-7.91-3.01-4.45,0-7.86,2.56-7.86,8.22s3.28,8.04,8.22,8.04c3.73,0,4.76-1.17,7.77-3.05l-.09,4.13Z"/>
    <path class="cls-1" d="m125.31,440.51c2.38,0,4.81,1.01,6.78,2.76v-2.31h5.03v23.45h-5.03v-2.05c-1.97,1.62-4.41,2.5-6.78,2.5-6.6,0-11.01-4.85-11.01-12.17s4.4-12.18,11.01-12.18Zm.72,19.59c3.05,0,6.06-2.61,6.06-7.41s-3.01-7.37-6.06-7.37c-4.36,0-6.83,2.79-6.83,7.59s2.47,7.19,6.83,7.19Z"/>
    <path class="cls-1" d="m174.92,450.17c0-2.34-1.8-4.13-4.54-4.13-3.19,0-5.08,1.13-5.08,4.13v14.24h-4.99s.04-9.97,0-14.24c0-2.29-1.8-4.13-4.36-4.13-3.01,0-4.94,1.08-4.94,3.86v14.51h-4.99v-23.45h4.99v2.47c1.74-1.77,4.31-2.69,6.96-2.69,2.89,0,5.14,1.38,6.35,4.08,1.61-2.61,4.58-4.08,7.94-4.08,4.63,0,7.68,3.19,7.68,9.44v14.24h-5.03s.04-9.97,0-14.24Z"/>
    <path class="cls-1" d="m187.74,430.49s5.15.04,5.49,0c.08.24,0,5.43,0,5.43h-5.48v-5.44Zm.22,10.47h5.03v23.45h-5.03v-23.45Zm5.26-10.47s0,0,0,0c.03,0,.02,0,0,0Z"/>
    <path class="cls-1" d="m214.03,450.17c-.14-1.93-1.75-4.09-4.4-4.09-3.28,0-5.44,1.03-5.44,3.82v14.51h-4.99v-23.45h4.99v2.85c1.65-2.04,4.33-3.08,7.32-3.08,4.54,0,7.55,3.19,7.55,9.44v14.24h-5.03s.27-9.97,0-14.24Z"/>
    <path class="cls-1" d="m240.1,450.17c0-3.23-1.8-4.9-4.45-4.9-3.23,0-5.39,1.84-5.39,4.63v14.51h-4.99v-34.23h4.99v12.75c1.9-1.52,4.61-2.2,7.32-2.2,4.54,0,7.55,3.19,7.55,9.44v14.24h-5.03v-14.24Z"/>
    <path class="cls-1" d="m262.3,440.51c8.04,0,11.64,4.85,11.64,12.18,0,8.4-4.67,12.17-11.64,12.17-8.04,0-11.64-4.85-11.64-12.17,0-8.4,4.67-12.18,11.64-12.18Zm.05,19.99c3.73,0,6.78-1.93,6.78-7.77,0-5.08-2.43-7.95-6.7-7.95-3.73,0-7.14,1.98-7.14,7.82,0,5.08,2.79,7.91,7.05,7.91Z"/>
    <path class="cls-1" d="m301.5,440.51c3.2-.08,5.95.82,8.04,2.44v-12.77h5.03v34.23h-5.03v-1.92c-2.14,1.62-4.91,2.49-8.04,2.37-6.02-.22-10.07-4.85-10.07-12.17s4.04-12.04,10.07-12.18Zm1.21,19.77c3.82,0,6.83-2.79,6.83-7.59s-2.96-7.68-6.78-7.68-6.87,2.69-6.87,7.5,3.05,7.77,6.83,7.77Z"/>
    <path class="cls-1" d="m322.58,430.49s5.15.04,5.49,0c.08.24,0,5.43,0,5.43h-5.48v-5.44Zm.22,10.47h5.03v23.45h-5.03v-23.45Zm5.26-10.47s0,0,0,0c.03,0,.02,0,0,0Z"/>
    <path class="cls-1" d="m337.23,440.96l5.61,18.78,5.75-18.78h5.26l-8.53,23.45h-5.44l-8.31-23.45h5.66Z"/>
    <path class="cls-1" d="m378.3,461.27c-1.35,2.07-4.31,3.59-8.94,3.59-7.59,0-12.67-3.77-12.67-12.17s4.67-12.18,11.64-12.18c7.68,0,11.1,5.3,10.69,13.3h-5.03c.03-.72,0-1.4,0-2.05v2.05h-11.82c.38,4.6,3.15,6.69,7.19,6.69,4.72,0,6.83-2.16,9.03-2.92l-.09,3.69Zm-9.97-16.85c-3.25,0-5.55,1.95-6.08,6.24h11.65c-.47-3.83-2.3-6.24-5.57-6.24Z"/>
    <path class="cls-1" d="m396.02,445.05c-5.43.04-7.14,2.65-7.14,6.65v12.72h-4.99v-23.45h4.99v2.09c1.61-1.69,4-2.49,7.01-2.49,1.84,0,2.96.4,4.09,1.44v4.4s-1.75-1.35-3.95-1.35Z"/>
    <path class="cls-1" d="m419.03,445.45h-8.36v11.1c0,2.56,1.12,4,4.99,4,.95,0,2.07-.32,3.23-.81v4.18c-1.84.81-3.59.94-4.54.94-6.38,0-8.72-2.96-8.72-8.31v-11.1h-3.86v-4.36h3.86v-7.68l5.03-2.74v10.42h8.36v4.36Z"/>
    <path class="cls-1" d="m425.24,430.49s5.15.04,5.49,0c.08.24,0,5.43,0,5.43h-5.48v-5.44Zm.22,10.47h5.03v23.45h-5.03v-23.45Zm5.26-10.47s0,0,0,0c.03,0,.02,0,0,0Z"/>
    <path class="cls-1" d="m446.09,440.51c3.2-.08,5.95.82,8.04,2.44v-12.77h5.03v34.23h-5.03v-1.92c-2.14,1.62-4.91,2.49-8.04,2.37-6.02-.22-10.07-4.85-10.07-12.17s4.04-12.04,10.07-12.18Zm1.21,19.77c3.82,0,6.83-2.79,6.83-7.59s-2.96-7.68-6.78-7.68-6.87,2.69-6.87,7.5,3.05,7.77,6.83,7.77Z"/>
    <path class="cls-1" d="m476.34,440.51c8.04,0,11.64,4.85,11.64,12.18,0,8.4-4.67,12.17-11.64,12.17-8.04,0-11.64-4.85-11.64-12.17,0-8.4,4.67-12.18,11.64-12.18Zm.05,19.99c3.73,0,6.78-1.93,6.78-7.77,0-5.08-2.43-7.95-6.7-7.95-3.73,0-7.14,1.98-7.14,7.82,0,5.08,2.79,7.91,7.05,7.91Z"/>
  </g>
  <rect class="cls-3" y="408.61" width="490.28" height="3.91"/>
  <path class="cls-2" d="m400.8,195.34c-1.55-7.77-4.69-14.74-10.05-20.71-6.81-7.58-15.03-13.04-24.43-16.75-12.24-4.83-25.04-6.65-38.12-6.61-12.52.03-25.03.62-37.5,1.75-7.5.68-15,1.34-22.5,2.01-4.19.38-8.38.76-12.66,1.15-.04.7-.05,1.34-.12,1.96-.41,3.87-.88,7.73-1.24,11.6-.57,6.13-1.08,12.26-1.58,18.39-.5,6.13-1.1,12.26-1.41,18.4-.32,6.42-.32,12.86-.52,19.29-.18,5.95.08,11.88.77,17.79.74,6.27,2.04,12.42,4.01,18.42,1.43,4.37,3.28,8.56,5.4,12.66,3.53,6.79,8.36,12.48,14.06,17.5.66.58,1.29,1.23,2.04,1.67,2.71,1.59,5.38,3.25,8.21,4.61,7.11,3.42,14.69,4.25,22.45,3.47,4.92-.49,9.61-1.93,14.09-4.07,6.1-2.93,11.33-6.96,15.32-12.43,5.02-6.89,7.9-14.59,8.44-23.17.31-4.89-.1-9.67-1.18-14.41-.29-1.28-.71-2.54-1.08-3.81.21-.04.28-.08.34-.07,1.1.28,2.19.57,3.29.84,11.04,2.75,21.73,1.73,31.89-3.36,10.39-5.21,17.15-13.69,20.75-24.63,2.3-6.99,2.79-14.2,1.35-21.47Zm-85.8,48.36c-15.04,0-27.22-12.19-27.22-27.22s12.19-27.22,27.22-27.22,27.22,12.19,27.22,27.22-12.19,27.22-27.22,27.22Z"/>
</svg>