<?xml version="1.0" encoding="UTF-8"?>
<svg id="Camada_2" data-name="Camada 2" xmlns="http://www.w3.org/2000/svg" viewBox="0 0 993.71 230.32">
  <defs>
    <style>
      .cls-1, .cls-2 {
        fill: #fff;
      }

      .cls-2 {
        font-family: Gallant-regular, Gallant;
        font-size: 64.21px;
      }
    </style>
  </defs>
  <g>
    <g>
      <path class="cls-1" d="m378.61,1.56c.17.25.25.58.25,1,0,.25-.06.62-.19,1.12s-.19.81-.19.94c-.08.33-.12.71-.12,1.12v3.37s-.12,1.06-.37,3.06c-.08.42-.15,1.14-.19,2.18-.04,1.04-.12,1.83-.25,2.37v2.31s.02.15.06.31c.04.17.06.29.06.37,0,.04-.02.23-.06.56-.04.33-.06.6-.06.81,0,.12.05.29.16.5.1.21.16.37.16.5v.31c0,.12.02.29.06.5.04.21.06.38.06.5,0,.42-.07,1.05-.22,1.9s-.22,1.49-.22,1.9c.08.17.12.52.12,1.06v.37c0,.42-.04.71-.12.87,0,.17-.02.48-.06.94-.04.46-.06.79-.06,1,0,.25.02.62.06,1.12.04.5.06.85.06,1.06,0,.92-.17,1.5-.5,1.75-.17.08-.46.12-.87.12-1.25,0-1.93-.25-2.06-.75,0-.33.02-.73.06-1.19.04-.46.06-.79.06-1,0-.67-.04-1.12-.12-1.37,0-.17.02-.44.06-.81.04-.37.06-.62.06-.75,0-.25-.07-.62-.22-1.12-.15-.5-.24-.81-.28-.94v-.75l-.62-2.56-1.31-2.56c-.08-.25-.12-.58-.12-1-.25-2.2-1.06-3.91-2.43-5.12-.04-.25-.17-.59-.38-1.03s-.33-.7-.37-.78c0-.33-.08-.5-.25-.5-.04-.12-.22-.28-.53-.47-.31-.19-.51-.32-.59-.41l-1.44-1.56c-.21-.08-.49-.31-.84-.69-.35-.38-.55-.69-.59-.94-1.46-1.33-3.1-2.45-4.93-3.37-.33,0-.84-.11-1.53-.34-.69-.23-1.18-.36-1.47-.41-.12-.04-.32-.09-.59-.16-.27-.06-.51-.11-.72-.16-.21-.04-.4-.06-.56-.06h-.37c-.21,0-.53.04-.97.12-.44.08-.76.12-.97.12h-1.56c-.33.04-.73.19-1.18.44-.46.25-.77.4-.94.44-.17.12-.38.31-.65.56-.27.25-.54.46-.81.62s-.55.29-.84.37l-1.81,1.93c-.04.21-.12.43-.25.66-.12.23-.31.49-.56.78-.25.29-.42.52-.5.69l-.38,1.56c-.04.08-.12.26-.25.53-.12.27-.21.51-.25.72-.33,1.66-.54,2.91-.62,3.74,0,.25-.08.71-.25,1.37-.17.67-.25,1.14-.25,1.43,0,.25.02.66.06,1.22.04.56.06.97.06,1.22v2.56c0,.25.04.6.12,1.06.08.46.12.79.12,1l-.5,4.18c0,.21.02.52.06.94.04.42.06.71.06.87v.38c0,.87-.06,2.17-.19,3.9-.12,1.73-.19,2.99-.19,3.77,0,.96.04,1.64.12,2.06,0,.21-.02.53-.06.97-.04.44-.06.78-.06,1.03,0,.08-.02.22-.06.41-.04.19-.06.32-.06.41,0,.96.12,1.77.38,2.43,0,.21-.02.54-.06,1-.04.46-.06.79-.06,1s.02.57.06,1.09c.04.52.06.88.06,1.09,0,.25-.04.66-.12,1.22-.08.56-.12.97-.12,1.22,0,.21.02.56.06,1.06.04.5.06.87.06,1.12-.04.17-.12.56-.25,1.19-.12.62-.19,1.08-.19,1.37,0,.33.03.92.09,1.75.06.83.09,1.52.09,2.06-.04.38-.17.94-.37,1.68-.21.75-.31,1.35-.31,1.81,0,.17.08.67.25,1.5v1.31c0,.33.08.67.25,1v2.81c.12.5.19,1.06.19,1.68v.62c0,.17-.03.4-.09.69-.06.29-.09.52-.09.69v8.23c0,.17.03.41.09.72.06.31.09.57.09.78v.5c0,.08-.03.22-.09.41-.06.19-.09.32-.09.41.04.25.18.65.41,1.19.23.54.36.89.41,1.06,0,.29.04.52.12.69,0,.04.02.1.06.19.04.08.06.15.06.19l.25,1.12.25.12c.08.5.29,1.06.62,1.68.04.04.08.07.12.09.04.02.08.05.12.09.04.04.08.1.12.19,0,.08.02.18.06.28.04.1.06.18.06.22.17.17.39.25.69.25.08.17.12.35.12.56l1.5.75,1.44.87s.1.04.19.12c.08.08.15.12.19.12v.12h.12l.87.44,1.19.87c.37.08.75.15,1.12.19.38.04.79.07,1.25.09.46.02.81.05,1.06.09h.87c.08,0,.24.02.47.06.23.04.38.06.47.06.17,0,.5-.12,1-.38h3.43c.12-.04.41-.17.84-.37.44-.21.76-.33.97-.37.87,0,1.55-.08,2.03-.25.48-.17,1.13-.56,1.96-1.19.08-.08.12-.17.12-.25l.75-.37c.67-.33,1.31-.98,1.93-1.93l.75-.87.87-.5v-.44s.17-.04.37-.12c.21-.08.35-.17.44-.25l1.37-1.87c.25-.25.46-.6.62-1.06.08-.21.26-.5.53-.87.27-.38.45-.67.53-.87,0-.08.02-.2.06-.34.04-.15.06-.26.06-.34l.87-1.87c.38-.58.62-1.23.75-1.93.08-.17.2-.47.34-.9s.26-.74.34-.91v-.5c0-.37.17-1.14.5-2.31.5-.5,1.39-.75,2.68-.75.79,0,1.39.33,1.81,1,0,.46-.19,1.06-.56,1.81,0,.04-.08.27-.25.69-.17.42-.25.75-.25,1-.04.08-.12.26-.25.53-.12.27-.21.51-.25.72-.12.87-.33,1.85-.62,2.93l-.37.87c-.04.08-.35.73-.94,1.93l-.37.75c-.08.08-.33.44-.75,1.06l-.94,1.37c-.08.08-.12.17-.12.25l-.37.81c-.12.17-.4.44-.81.81-.42.37-.73.69-.94.94-.12.08-.4.44-.81,1.06l-1,1.12-.12.12c-.25.08-.56.34-.94.78-.38.44-.62.7-.75.78-.04,0-.12.02-.25.06-.12.04-.21.06-.25.06-1.71.83-2.77,1.44-3.18,1.81l-.12.12c-.29.08-.63.29-1.03.62-.4.33-.74.54-1.03.62-.08.04-.2.08-.34.12-.15.04-.24.08-.28.12-.17,0-.29.04-.37.12v.12l-.56.25c-.21.12-1.19.48-2.93,1.06-1,.25-1.75.37-2.25.37-.12,0-.33-.02-.62-.06-.29-.04-.52-.06-.69-.06-.37,0-1,.04-1.87.12-.87.08-1.52.12-1.93.12h-.69l-1.87-.37c-.21,0-.6.02-1.19.06-.58.04-1.08.06-1.5.06-.08,0-.22.02-.41.06-.19.04-.32.06-.41.06-.21-.04-.58-.16-1.12-.34-.54-.19-.94-.32-1.18-.41-.04-.04-.42-.19-1.12-.44-.04,0-.1-.04-.19-.12-.08-.08-.15-.12-.19-.12-.08-.08-.27-.15-.56-.19-.29-.04-.5-.1-.62-.19-.08,0-.2-.04-.34-.12-.15-.08-.24-.12-.28-.12-1.21-.5-1.89-.79-2.06-.87-.17-.08-.42-.29-.75-.62-1.04-.21-1.58-.31-1.62-.31-.21-.29-.49-.56-.84-.81-.35-.25-.75-.5-1.19-.75-.44-.25-.76-.44-.97-.56-.71-.46-2.06-1.58-4.05-3.37-.37-.46-1.1-1.04-2.18-1.75l-.5-.5s-.07-.04-.09-.12c-.02-.08-.04-.17-.06-.25-.02-.08-.05-.15-.09-.19h-.25c-.04-.08-.16-.22-.34-.41-.19-.19-.3-.34-.34-.47-.33-.17-.54-.33-.62-.5-.33-.33-.54-.58-.62-.75-.62-.62-1-1.06-1.12-1.31-.38-.67-1.06-1.62-2.06-2.87-1-1.25-1.56-1.95-1.68-2.12-.42-.42-.71-.96-.87-1.62l-.38-.31c-.75-1.12-1.35-2.35-1.81-3.68-.04-.08-.12-.25-.25-.5s-.21-.46-.25-.62c-.08-.08-.21-.29-.38-.62-.17-.33-.25-.52-.25-.56,0-.12-.1-.29-.31-.5,0-.17-.08-.42-.25-.75-.5-.5-.79-.89-.87-1.19-.04-.12-.22-.54-.53-1.25-.31-.71-.59-1.23-.84-1.56,0-.33-.14-.84-.41-1.53-.27-.69-.41-1.07-.41-1.15-.04-.12-.07-.38-.09-.75-.02-.37-.07-.62-.16-.75l-.75-2.06c-.08-.17-.12-.46-.12-.87v-1.06l-.37-1.93c0-.33-.06-.81-.19-1.44-.12-.62-.19-1.16-.19-1.62,0-.58-.06-1.12-.19-1.62-.08-.17-.12-.52-.12-1.06v-1c-.08-.25-.14-.49-.16-.72-.02-.23-.03-.5-.03-.81s-.02-.61-.06-.9v-.87c0-1.12.04-1.93.12-2.43v-1.56c0-.17.08-.33.25-.5v-.75l.56-3.87c.17-.91.33-1.64.5-2.18,0-.04.02-.1.06-.19.04-.08.06-.15.06-.19.21-.71.46-1.74.75-3.09.29-1.35.54-2.36.75-3.03.04-.21.16-.51.34-.91.19-.39.3-.7.34-.9l.62-2,.62-1.43.5-.62.69-1.43.37-.5c.25-.25.46-.81.62-1.68.08-.37.37-.8.87-1.28.5-.48.81-.84.94-1.09.33-.33.8-1.1,1.4-2.31.6-1.21,1.19-2.02,1.78-2.43l1-1.43.5-.5c1.21-1.21,2.1-2.02,2.68-2.43,2.33-2.33,4.51-4.2,6.55-5.62.08-.08.3-.2.65-.34.35-.15.59-.24.72-.28.29-.29.69-.5,1.19-.62.25-.25.62-.44,1.12-.56,0-.17.04-.25.12-.25l.81-.37c.21-.12.54-.27,1-.44.46-.17.79-.31,1-.44.12-.08.35-.24.69-.47.33-.23.62-.38.87-.47.08-.08.28-.17.59-.25.31-.08.53-.17.66-.25l1.06-.5c.62-.08,1.46-.3,2.5-.65,1.04-.35,1.79-.59,2.25-.72.54-.08,1.4-.2,2.59-.34s1.99-.26,2.4-.34c.17,0,.33-.08.5-.25h1.62c.08-.08.35-.12.81-.12h.37c.08,0,.21.02.37.06.17.04.29.06.37.06.25.08.77.12,1.56.12l1.75.37c.5.17.94.25,1.31.25.04,0,.37.1,1,.31h.25c1.58.21,2.56.37,2.93.5l2.06.37,1.06.37,1.62.38c.08.08.29.12.62.12h.81c.08.04.24.07.47.09.23.02.45.07.66.16.08,0,.24.04.47.12.23.08.41.12.53.12.37,0,.64.04.81.12.29,0,.62.06,1,.19.58,0,1.06-.19,1.44-.56.04,0,.17-.06.37-.19.21-.12.33-.19.37-.19.38-.25.58-.46.62-.62.12-.04.35-.16.69-.34.33-.19.58-.28.75-.28h.25Z"/>
      <path class="cls-1" d="m387.34,84.47c-.08-.04-.15-.15-.19-.31-.04-.17-.1-.31-.19-.44-1.08-1.87-2.1-4.26-3.06-7.17,0-.04-.02-.12-.06-.25-.04-.12-.06-.21-.06-.25-.17-2.16-.5-3.62-1-4.37v-.37l-.06-1.12c-.04-.71-.06-1.52-.06-2.43,0-1.71.04-3.2.12-4.49.17-.66.25-1.23.25-1.68l.5-1.87c.25-.62.46-1.35.62-2.18.75-2.08,1.23-3.58,1.44-4.49.12-.54.39-1.23.81-2.06.42-.83.69-1.41.81-1.75.42-.83.73-1.35.94-1.56.54-1.08.96-1.77,1.25-2.06l.38-.75c0-.08.06-.23.19-.44.12-.21.27-.46.44-.75.17-.29.27-.5.31-.62.17-.17.33-.42.5-.75.25-.46.47-.8.66-1.03.19-.23.51-.56.97-1,.46-.44.77-.74.94-.9.87-1.12,1.68-1.89,2.43-2.31l1.62-1.56c.33-.33.94-.79,1.81-1.37.87-.58,1.52-1.1,1.93-1.56.42-.04.88-.22,1.4-.53.52-.31.8-.47.84-.47l2.18-1c.17-.04.41-.16.72-.34.31-.19.51-.3.59-.34.17-.08.44-.17.81-.25.37-.08.64-.17.81-.25.08-.04.3-.17.66-.37.35-.21.61-.33.78-.38,1.83-.33,4.03-.98,6.61-1.93.79-.12,1.52-.29,2.18-.5.33-.08.9-.17,1.71-.25.81-.08,1.4-.17,1.78-.25.5-.17.87-.25,1.12-.25h2.18c.42.08,1.31.12,2.68.12h1.5c.17,0,.54.06,1.12.19.58.12,1.02.19,1.31.19h.5l.94.37c.12.04.49.09,1.09.16.6.06,1.05.13,1.34.22.17.04.49.15.97.31.48.17.84.27,1.09.31l2.12.56c.58.29.89.46.94.5.42.17,1.04.5,1.87,1s1.48.85,1.93,1.06c.08.08.32.2.72.34.4.15.68.28.84.41,0,.08.25.28.75.59.5.31,1.04.65,1.62,1,.58.35.94.63,1.06.84.25.12.59.33,1.03.62s.78.5,1.03.62c.04.04.15.08.31.12.17.04.27.08.31.12.71.29,1.42.87,2.15,1.75.73.87,1.28,1.46,1.65,1.75.08.08.27.32.56.72.29.4.54.66.75.78.08.12.41.53.97,1.22.56.69,1.03,1.3,1.4,1.84.37.54.64.98.81,1.31.08.21.25.5.5.87.25.37.42.67.5.87.25.54.62,1.23,1.12,2.06.5.83.85,1.43,1.06,1.81.12.21.44,1.06.94,2.56.71,1.75,1.21,3.7,1.5,5.86v1.56c0,.83.04,1.37.12,1.62v2.81c0,.96-.04,1.73-.12,2.31l-.25,2.18c-.04.33-.29,1.66-.75,3.99-.04.21-.12.48-.25.81-.12.33-.21.6-.25.81-.08.29-.23.87-.44,1.75-.21.87-.42,1.58-.62,2.12-.17.33-.25.62-.25.87l-.75,2.31c-.46.79-.81,1.6-1.06,2.43-.04.04-.22.34-.53.9-.31.56-.47.99-.47,1.28-.58,1.16-1.39,2.27-2.43,3.31l-1.12,1.37c-.12.33-1.14,1.46-3.06,3.37-.25.25-.68.6-1.28,1.06-.6.46-1.03.81-1.28,1.06-.54.71-1.23,1.39-2.06,2.06-.25.25-.73.5-1.44.75l-.75.69-2.06,1.25c-.25.25-.42.37-.5.37-.25.21-1.02.52-2.31.94-.08.04-.3.15-.66.31-.35.17-.63.27-.84.31l-1.56.25-1.25.37c-.54.21-1.54.43-2.99.66-1.46.23-2.43.45-2.93.66-.12.04-.56.12-1.31.25-.75.12-1.29.29-1.62.5-.17,0-.52.02-1.06.06-.54.04-.92.06-1.12.06h-2.37c-.42,0-1-.07-1.75-.22-.75-.15-1.25-.24-1.5-.28l-1.75-.25-1.43-.44c-.21-.04-.52-.09-.94-.16-.42-.06-.8-.14-1.15-.22-.35-.08-.68-.21-.97-.37l-1.43-.37c-.12-.04-.34-.07-.66-.09-.31-.02-.57-.05-.78-.09-.21-.04-.4-.15-.56-.31l-.5-.25c-.29-.08-.82-.22-1.59-.41-.77-.19-1.45-.38-2.03-.59s-1.04-.48-1.37-.81l-3.74-1.93c-.33-.29-1.14-.75-2.43-1.37-.12-.08-.59-.47-1.4-1.15-.81-.69-1.45-1.15-1.9-1.4-.46,0-.94-.34-1.43-1.03-.5-.69-.92-1.07-1.25-1.15-.33-.17-1.02-.77-2.06-1.81-.21-.04-.43-.26-.66-.66-.23-.39-.38-.63-.47-.72-.96-.96-1.56-1.68-1.81-2.18-.17-.33-.55-.84-1.15-1.53-.6-.69-1.03-1.24-1.28-1.65Zm50.34,8.92c.12-.12.27-.38.44-.78.17-.39.33-.67.5-.84.04-.04.17-.85.37-2.43,0-.04.02-.08.06-.12s.06-.08.06-.12c.17-.67.25-1.23.25-1.68v-1c0-.46.04-.85.12-1.18,0-.25.08-.62.25-1.12,0-.29.02-.66.06-1.09.04-.44.06-.76.06-.97.08-.42.12-1.14.12-2.18,0-.42.04-1,.12-1.75.08-.75.12-1.31.12-1.68,0-.12-.04-.32-.12-.59-.08-.27-.12-.47-.12-.59,0-.17.04-.42.12-.75.08-.33.12-.58.12-.75l.25-5.24v-.25c-.17-1.33-.25-2.35-.25-3.06,0-.08.02-.22.06-.41.04-.19.06-.32.06-.41v-2.43c0-.29.04-.73.12-1.31.08-.58.12-1,.12-1.25v-.37c0-.17-.02-.42-.06-.75-.04-.33-.06-.58-.06-.75-.08-.42-.12-1.06-.12-1.93v-1.68c0-.25-.02-.6-.06-1.06-.04-.46-.06-.81-.06-1.06v-1.43c0-2.75-.38-5.72-1.12-8.92-.17-.17-.34-.43-.53-.78-.19-.35-.37-.75-.53-1.19-.17-.44-.29-.72-.38-.84-.17-.37-.45-.87-.84-1.5-.4-.62-.66-1.1-.78-1.43-.04-.12-.27-.39-.69-.81-.25-.33-.62-.67-1.12-1-.37-.42-1.31-1.1-2.81-2.06-.46-.12-.81-.33-1.06-.62-1-.62-2.56-.94-4.68-.94-.5.12-1.06.19-1.68.19h-1.5c-.62,0-1.06.04-1.31.12-.62.12-1.23.33-1.81.62-.37.08-.75.26-1.12.53-.37.27-.62.43-.75.47l-.81.25-1.62,1.31c-.21.21-.45.55-.72,1.03-.27.48-.51.82-.72,1.03l-.87,1c-.08.5-.29,1.14-.62,1.93-.12.21-.27.54-.44,1l-.87,1.81-.75,1.87c0,.08-.25,1.25-.75,3.49,0,.04-.1.37-.31,1-.08.17-.12.37-.12.62v.69c-.17,1.17-.25,2.02-.25,2.56-.04.33-.12.74-.25,1.22-.12.48-.21.78-.25.9-.04.12-.07.43-.09.91-.02.48-.07.82-.16,1.03,0,.12-.02.3-.06.53-.04.23-.06.38-.06.47,0,.37-.04.88-.12,1.53-.08.65-.12,1.13-.12,1.47v1.37c0,.17-.02.41-.06.72-.04.31-.06.55-.06.72v2.56c0,.33.02.85.06,1.56.04.71.06,1.25.06,1.62v2.93c.25,1.25.37,2.1.37,2.56.08.75.12,1.77.12,3.06,0,.96.04,1.64.12,2.06v.87c0,.12.02.28.06.47.04.19.06.32.06.41.08.21.16.59.22,1.15s.16.99.28,1.28c.04.25.1.52.19.81.08.29.2.59.34.9.15.31.24.55.28.72,0,.37.04.69.12.94.12.25.32.78.59,1.59.27.81.53,1.42.78,1.84.04.12.15.29.31.5s.27.37.31.5c.04.08.19.48.44,1.18.5.5.96,1.17,1.37,2,.87.5,1.48,1.1,1.81,1.81.17.17.39.41.69.72.29.31.52.51.69.59l.69.5c.25.21.59.41,1.03.59.44.19.72.32.84.41.25.25.48.37.69.37.83.42,1.85.69,3.06.81l1.87.37c.25.08.56.12.94.12.5,0,.87-.04,1.12-.12l1.93-.25c1.33-.54,2.02-.81,2.06-.81,1.12-.54,1.75-.87,1.87-1,.5-.21,1.1-.62,1.81-1.25s1.19-1.02,1.44-1.19c.12-.25.38-.64.78-1.18.39-.54.68-.96.84-1.25Z"/>
      <path class="cls-1" d="m555.28,103c-.08.04-.2.13-.34.28-.15.15-.24.22-.28.22h-2.56c-.5.08-1.35.12-2.56.12h-7.17c-.83,0-2.1-.02-3.81-.06-1.71-.04-2.97-.06-3.81-.06-.5,0-1.25-.02-2.25-.06-1-.04-1.79-.06-2.37-.06-1.12,0-1.98.04-2.56.12-.17,0-.48-.02-.94-.06-.46-.04-.79-.06-1-.06-.42,0-.75.04-1,.12h-1.43c-.67,0-1.04-.17-1.12-.5v-.38c0-.21.04-.52.12-.94.08-.42.12-.75.12-1v-.5c0-.46-.04-.81-.12-1.06v-.12c0-.17.1-.79.31-1.87.21-1.08.31-1.89.31-2.43,0-.17-.04-.43-.12-.78-.08-.35-.12-.61-.12-.78v-4.74c0-.42.02-1.06.06-1.93.04-.87.06-1.5.06-1.87.17-.5.25-1.27.25-2.31,0-.5-.04-1.27-.12-2.31-.08-1.04-.12-1.85-.12-2.43,0-.67.04-1.16.12-1.5v-2.56c0-.21.02-.52.06-.94.04-.42.06-.75.06-1v-2.06c.08-.42.12-1.14.12-2.18v-2.37c0-.33-.04-.84-.12-1.53-.08-.69-.12-1.17-.12-1.47v-.87c0-.25.02-.6.06-1.06.04-.46.06-.79.06-1,0-.33-.04-.58-.12-.75.08-.25.12-.58.12-1,0-.21-.02-.56-.06-1.06-.04-.5-.06-.91-.06-1.25,0-.12.02-.3.06-.53.04-.23.06-.41.06-.53,0-.08.02-.23.06-.44.04-.21.06-.35.06-.44,0-.17-.08-.58-.25-1.25,0-.29-.02-.6-.06-.94-.04-.33-.06-.67-.06-1,0-.12-.02-.32-.06-.59-.04-.27-.06-.47-.06-.59s.02-.31.06-.56c.04-.25.06-.44.06-.56,0-.21-.12-.81-.37-1.81-.04-.17-.12-.57-.22-1.22-.1-.64-.24-1.13-.41-1.47l-1.68-3.18-1.25-1.81c-.92-.71-1.48-1.12-1.68-1.25-1.17-.58-2.43-.87-3.81-.87-2.21,0-3.79.62-4.74,1.87-.04.04-.26.3-.66.78-.4.48-.74.82-1.03,1.03-.12.46-.58,1.28-1.37,2.46-.79,1.19-1.19,2.15-1.19,2.9l-.37,1c-.08.96-.12,2.5-.12,4.62,0,.5.04,1.29.12,2.37.08,1.08.12,1.91.12,2.5-.17,1.5-.25,2.48-.25,2.93,0,.29.08.94.25,1.93v.5c0,.12-.01.42-.03.87-.02.46-.04,1.17-.06,2.12-.02.96-.03,2.12-.03,3.49,0,.29-.06.84-.19,1.65-.12.81-.19,1.47-.19,1.96,0,.42.06,1.05.19,1.9.12.85.19,1.49.19,1.9,0,.08-.02.24-.06.47-.04.23-.06.38-.06.47,0,.04-.02.24-.06.59-.04.35-.08,1.03-.12,2.03-.04,1-.06,2.29-.06,3.87v5.37c-.08.25-.12,2.08-.12,5.49v1.56c0,.58.04,1,.12,1.25.08.33.29.72.62,1.15s.63.8.91,1.09c.27.29.66.69,1.18,1.19.52.5.84.81.97.94l.81.75c.67.67,1,1.23,1,1.68v.25c-.33.42-.98.62-1.93.62h-1.25c-.67-.17-1.1-.25-1.31-.25h-.5c-.17.08-.46.12-.87.12-.21,0-.53-.02-.97-.06-.44-.04-.76-.06-.97-.06h-4.37c-1,.17-1.81.25-2.43.25-.37,0-.96-.02-1.75-.06-.79-.04-1.39-.06-1.81-.06h-.75c-.25,0-.71-.02-1.37-.06-.67-.04-1.27-.06-1.81-.06h-10.73c-.29,0-.78.04-1.47.12-.69.08-1.28.12-1.78.12h-.75c-.62,0-1.08-.21-1.37-.62v-.37c0-.33.16-.62.47-.87.31-.25.66-.48,1.03-.69l.12-.12c.91-.12,1.89-.5,2.93-1.12.12-.12.38-.35.75-.69.37-.33.69-.63.94-.9.25-.27.46-.55.62-.84.42-.83.62-1.96.62-3.37v-2.81c0-.5.04-.87.12-1.12v-6.36c.38-1.54.56-3.16.56-4.87,0-1.08-.08-2.58-.25-4.49,0-.25.02-.61.06-1.09.04-.48.06-.84.06-1.09v-7.3c0-.12-.02-.33-.06-.62-.04-.29-.06-.5-.06-.62v-.5c0-.62.04-1.1.12-1.43.08-1.37.12-3.37.12-5.99,0-2.04-.04-3.58-.12-4.62,0-1.29.08-2.35.25-3.18,0-.17-.02-.45-.06-.84-.04-.4-.06-.68-.06-.84v-6.36c0-.58-.08-2.08-.25-4.49l-1.31-1.75c-.12-.04-.53-.26-1.22-.66-.69-.39-1.29-.7-1.81-.9-.52-.21-1.05-.37-1.59-.5-.37-.04-1-.29-1.87-.75-.04-.04-.23-.14-.56-.31-.33-.17-.54-.29-.62-.37-.67-.67-1-1.12-1-1.37v-.12c.08-.25.42-.38,1-.38h2.43c.29,0,.7.02,1.22.06.52.04.92.06,1.22.06h2.31c.08,0,.21-.02.38-.06.17-.04.29-.06.37-.06.25,0,.63.04,1.15.12.52.08.9.12,1.15.12.08,0,.23-.02.44-.06.21-.04.35-.06.44-.06.29,0,.79-.02,1.5-.06.71-.04,1.29-.06,1.75-.06h.87c.37,0,.95-.02,1.72-.06.77-.04,1.34-.06,1.71-.06.21,0,.51.02.91.06.39.04.7.06.9.06h2.06l4.43.12c.37.08.81.46,1.31,1.12.71.71,1.25,1.31,1.62,1.81l2.68,3.68c.5.79.77,1.18.81,1.18.17-.04.35-.14.56-.31.21-.17.44-.39.69-.69.25-.29.42-.48.5-.56.62-.62,1.02-1,1.19-1.12,1.87-1.87,3.18-3.08,3.93-3.62.08-.04.75-.42,2-1.12,1.25-.71,1.91-1.1,2-1.18.66-.33,1.25-.5,1.75-.5.33-.25.85-.38,1.56-.38h.87c.12,0,.33-.04.62-.12s.52-.12.69-.12h.25c.17,0,.29-.04.37-.12,1.75-.25,2.99-.37,3.74-.37,1.33-.17,2.27-.25,2.81-.25.79.08,1.93.34,3.43.78s2.47.72,2.93.84c.5,0,1,.1,1.5.31.5.21,1.14.53,1.93.97.79.44,1.48.78,2.06,1.03,1.58,1,2.84,1.99,3.77,2.96.94.98,1.75,2.02,2.43,3.12.69,1.1,1.3,1.92,1.84,2.46.08.08.17.23.25.44.08.21.17.37.25.5.5.75.89,1.21,1.18,1.37.67-.21,1.21-1.06,1.62-2.56.12,0,.25-.12.38-.37.21-.42.64-.96,1.31-1.62l1-1.19c.83-1.54,2.75-3.16,5.74-4.87l.69-.37.5-.25c.12-.04.37-.18.75-.41.37-.23.71-.41,1-.53.29-.12.56-.19.81-.19l1.12-.44s.41-.13,1.09-.41c.69-.27,1.17-.43,1.47-.47.25-.17.59-.3,1.03-.41.44-.1.92-.2,1.47-.28.54-.08.92-.14,1.12-.19.12-.04.38-.08.78-.12.39-.04.67-.08.84-.12.17,0,.41-.02.72-.06.31-.04.55-.06.72-.06.08,0,.29.02.62.06.33.04.62.06.87.06h2.06c.42,0,.78.03,1.09.09.31.06.55.14.72.22.17.08.43.21.78.37.35.17.67.31.97.44.08.04.34.12.78.25.44.12.74.29.91.5l1.56.81c.29.21.82.52,1.59.94.77.42,1.38.83,1.84,1.25.12.17.38.45.78.84.39.4.65.74.78,1.03.08.33.33.78.75,1.34.42.56.66.93.75,1.09.04.12.09.34.16.66.06.31.15.59.25.84.1.25.26.48.47.69.54,1.21.89,2.18,1.06,2.93l.25,1.68c.17,1.87.37,3.06.62,3.56v10.85c0,.87.02,2.21.06,4.02.04,1.81.06,3.23.06,4.27v2.06c0,.17-.04.83-.12,2-.08,1.17-.17,2.08-.25,2.75v3.56c0,.08-.02.25-.06.5-.04.25-.06.44-.06.56l.25,2.12c-.08,1.12-.12,2.79-.12,4.99v2.43c0,.37.08.81.25,1.31v1.5c0,.25.02.65.06,1.19.04.54.06.96.06,1.25,0,.96-.04,1.64-.12,2.06,0,.17.02.43.06.78.04.35.06.63.06.84,0,1.5.12,2.62.37,3.37.25.5,1.02,1.19,2.31,2.06.04.04.31.23.81.56.5.33.97.65,1.4.94.44.29.84.61,1.22.97s.56.59.56.72c0,.25-.19.37-.56.37h-.62c-.58.17-1.35.25-2.31.25h-1.75c-.17-.08-.48-.12-.94-.12h-1.37c-.21,0-.58.06-1.12.19s-.94.19-1.18.19h-1.56c-.71,0-1.83-.02-3.37-.06-1.54-.04-2.7-.06-3.49-.06-1.37,0-2.39.04-3.06.12h-2.31c-.08,0-.31-.01-.69-.03-.37-.02-.63-.04-.78-.06-.15-.02-.38-.05-.72-.09-.33-.04-.59-.09-.78-.16-.19-.06-.41-.13-.66-.22-.25-.08-.47-.2-.66-.34-.19-.14-.34-.3-.47-.47-.08-.08-.28-.23-.59-.44-.31-.21-.53-.42-.66-.62l-.69-1.25c-.46-.79-.75-1.35-.87-1.68-.08-.12-.21-.43-.37-.91-.17-.48-.37-.86-.62-1.15-.21-.29-.4-.79-.56-1.5-.58-1.41-.87-2.75-.87-3.99v-.87c0-.96-.04-1.73-.12-2.31,0-.17-.06-.52-.19-1.06-.12-.54-.19-.96-.19-1.25v-9.05c.17-2.41.25-4.24.25-5.49v-1.93c0-1,.08-2.79.25-5.37,0-.62.02-1.48.06-2.56.04-1.08.06-1.89.06-2.43v-1.25l.12-3.74c.08-.5.12-1.23.12-2.18.17-.5.25-1.25.25-2.25s-.04-1.77-.12-2.18c0-.62-.17-1.52-.5-2.68,0-.54-.08-1.31-.25-2.31-.08-.12-.26-.38-.53-.78-.27-.39-.47-.74-.59-1.03-.12-.17-.28-.38-.47-.66-.19-.27-.31-.45-.38-.53-.06-.08-.2-.2-.41-.34-.21-.15-.44-.28-.69-.41-.33-.33-.77-.5-1.31-.5h-1.5c-.62,0-1.23.15-1.81.44-.58.29-.98.52-1.19.69-.21.17-.65.67-1.34,1.5-.69.83-1.07,1.29-1.15,1.37-.12.08-.56.75-1.31,2-.04.12-.24.49-.59,1.09-.35.6-.61,1.09-.78,1.47l-1.43,2.56c-.17,2.04-.25,4.72-.25,8.05,0,.37-.02.95-.06,1.72-.04.77-.06,1.32-.06,1.65v6.36l-.38,2.31c-.17.83-.25,1.48-.25,1.93v.38c.17.67.25,1.25.25,1.75,0,.58-.04,1.51-.12,2.78-.08,1.27-.12,2.24-.12,2.9v3.18c0,.33.02.98.06,1.93.04.96.06,1.71.06,2.25,0,1.04-.04,1.77-.12,2.18v1.43c0,.67-.04,1.08-.12,1.25,0,.29-.04.75-.12,1.37-.08.62-.12,1.14-.12,1.56,0,.21-.02.55-.06,1.03-.04.48-.06.82-.06,1.03,0,.42.04.75.12,1,0,.17.03.33.09.5.06.17.13.34.22.53.08.19.15.32.19.41.33.33.88.75,1.65,1.25.77.5,1.24.81,1.4.94.12.08.39.24.81.47s.67.41.75.53c1.04.62,1.71,1.19,2,1.68Z"/>
      <path class="cls-1" d="m640.19,72.05l-2.68.25c-.17.33-.25.89-.25,1.68v1.12c0,.46.02,1.19.06,2.18.04,1,.06,1.77.06,2.31,0,.38-.02.95-.06,1.72-.04.77-.06,1.34-.06,1.72,0,.42-.02,1.06-.06,1.93-.04.87-.06,1.52-.06,1.93,0,.29.04.76.12,1.4.08.64.12,1.11.12,1.4,0,.33-.04.81-.12,1.43-.08.62-.12,1.08-.12,1.37,0,.42.02.85.06,1.31.04.46.09.97.16,1.53s.11,1.01.16,1.34c.08.21.22.4.41.56s.45.32.78.47.54.24.62.28l1.19.87.75.25,1,.94c.29.08.72.25,1.28.5.56.25.99.42,1.28.5.17.04.58.16,1.25.34.67.19,1.14.41,1.44.65-.17.75-.33,1.31-.5,1.68h-2.56c-.08,0-.25-.05-.5-.16-.25-.1-.46-.18-.62-.22-.08,0-.25.02-.5.06-.25.04-.44.06-.56.06s-.28-.02-.47-.06c-.19-.04-.32-.06-.41-.06-.33,0-.85.06-1.56.19-.71.12-1.25.19-1.62.19-.29,0-.74-.06-1.34-.19-.6-.12-1.05-.19-1.34-.19s-.81.04-1.56.12c-.75.08-1.35.12-1.81.12h-.62c-.08,0-.24-.04-.47-.12-.23-.08-.41-.12-.53-.12s-.32.02-.59.06c-.27.04-.47.06-.59.06-.08,0-.24-.02-.47-.06-.23-.04-.41-.06-.53-.06s-.31.04-.56.12c-.25.08-.44.12-.56.12h-1.43c-.29,0-.72.02-1.28.06-.56.04-.99.06-1.28.06l-.75-.25c-.37-.08-1.08-.13-2.12-.16-1.04-.02-1.71-.05-2-.09h-.25c-.12,0-.33.04-.62.12-.29.08-.5.12-.62.12h-1.43c-.12,0-.33-.02-.62-.06-.29-.04-.5-.06-.62-.06-.25-.08-.69-.12-1.31-.12-.08,0-.23-.02-.44-.06-.21-.04-.35-.06-.44-.06-.29,0-.75.04-1.37.12-.62.08-1.06.12-1.31.12h-1.68c-.42.08-1,.12-1.75.12-.71,0-1.27-.04-1.68-.12-.42-.42-.62-.75-.62-1,0-.5.42-.85,1.25-1.06h.12l.37-.25.69-.37c.12-.04.34-.21.65-.5.31-.29.51-.46.59-.5l.5-.56c.08,0,.18-.04.28-.12.1-.08.18-.12.22-.12.21-.17.45-.38.72-.62.27-.25.55-.54.84-.87.29-.33.5-.56.62-.69.08-.5.21-1.77.38-3.81,0-.29-.02-.74-.06-1.34-.04-.6-.06-1.05-.06-1.34,0-1.79-.08-4.72-.25-8.8v-2.31c0-.42-.04-1.05-.12-1.9s-.12-1.47-.12-1.84c0-.08.06-.33.19-.75.12-.42.19-.75.19-1v-7.67c0-1,.08-2.25.25-3.74,0-.33.03-.76.09-1.28.06-.52.09-.92.09-1.22.33-5.07.54-9.09.62-12.04v-4.99c0-1.83.04-3.26.12-4.3v-1.19c0-1.16-.08-2.79-.25-4.87v-1.62c0-.42-.02-1.11-.06-2.09-.04-.98-.06-1.65-.06-2.03v-.62c0-.33.02-.84.06-1.53.04-.69.06-1.19.06-1.53v-.81c0-.17-.02-.38-.06-.66-.04-.27-.06-.47-.06-.59,0-.21.04-.56.12-1.06.08-.5.12-.87.12-1.12,0-.21-.02-.54-.06-1-.04-.46-.06-.81-.06-1.06,0-.12.02-.28.06-.47.04-.19.06-.32.06-.41v-1.81c0-.91.04-1.62.12-2.12,0-.71-.08-1.23-.25-1.56,0-.04-.02-.08-.06-.12-.04-.04-.06-.08-.06-.12-.17-.17-.25-.37-.25-.62s-.15-.52-.44-.81l-.87-.87c-.87-.87-1.56-1.48-2.06-1.81l-1.12-.87c-.08-.04-.21-.09-.37-.16s-.33-.11-.5-.16c-.17-.04-.31-.11-.44-.22-.12-.1-.21-.22-.25-.34v-.25c0-.46.12-.81.38-1.06h.31c.08,0,.21-.02.37-.06.17-.04.29-.06.38-.06s.24.02.47.06c.23.04.41.06.53.06h4.12c.17,0,.6.02,1.31.06s1.21.06,1.5.06c.17,0,.45-.02.84-.06.39-.04.7-.06.9-.06h3.99c.25-.08.58-.12,1-.12h1.06c.33-.08.87-.12,1.62-.12h.37c.17,0,.43.02.78.06.35.04.61.06.78.06h2.18c.75,0,1.84-.06,3.28-.19,1.43-.12,2.5-.19,3.21-.19.54,0,1.29.02,2.25.06.96.04,1.66.06,2.12.06h4.49c.42,0,1.05.04,1.9.12.85.08,1.49.12,1.9.12h.87s.13-.02.28-.06c.15-.04.24-.06.28-.06h.62c.25,0,.62.02,1.12.06.5.04.85.06,1.06.06.42,0,.75-.04,1-.12,2.41-.17,3.87-.25,4.37-.25.67.08,1.6.15,2.81.19,1.21.04,2.14.1,2.81.19h1.93c.17.08.46.12.87.12.08,0,.21.04.37.12.17.08.29.12.38.12.17.08.46.12.87.12,1.62.37,2.79.69,3.49.94.17.04.62.25,1.37.62.75.21,1.27.37,1.56.5l1.25,1.19h.44l.5.5c.08.08.21.12.38.12,0,.17.04.25.12.25s.17.04.25.12l.12.12.5.25c.08.04.35.29.81.75h.38c.12.08.58.52,1.37,1.31l.94.62c.42.58.75.92,1,1,.17.37.42.74.75,1.09.33.35.71.73,1.12,1.12.42.4.73.7.94.9.17.33.33.58.5.75l.87.87.19.25c.08.17.12.29.12.37.29.29.5.56.62.81l.37.5s.18.21.41.5c.23.29.38.54.47.75l1.43,3.37c.04.58.38,1.68,1,3.31,0,.71.08,1.73.25,3.06v.25c.17,1,.25,1.89.25,2.68l.12.12c-.08.08-.12.25-.12.5,0,.12.02.33.06.62.04.29.06.48.06.56v4.18c0,.25-.04.61-.12,1.09-.08.48-.12.84-.12,1.09,0,.08.02.19.06.31.04.12.06.23.06.31,0,.04-.04.14-.12.28-.08.15-.12.24-.12.28-.08.42-.12,1.12-.12,2.12l-1,2.68c-.42,1.41-.71,2.33-.87,2.75-.46,1-1.19,2.35-2.18,4.05-.21.33-1.06,1.96-2.56,4.87l-.62.5-1.06,1.31-.5.25c-.12.08-.35.28-.69.59-.33.31-.58.53-.75.65l-.87.75c-.08.08-.12.17-.12.25-.38.17-1.02.6-1.93,1.31l-.12.12c-.08.04-.26.12-.53.25-.27.12-.47.25-.59.38-.04,0-.08.04-.12.12-.04.08-.08.12-.12.12l-.37.25c-.54.54-1.31.98-2.31,1.31-.71.33-1.18.54-1.43.62l-2.56.94-.37.37c-.54.38-1.52.79-2.93,1.25-.62.5-1.23.85-1.81,1.06-.17,0-.29.04-.38.12-.04,0-.11.02-.22.06-.1.04-.2.06-.28.06l-1.25.37c-.71.12-1.44.33-2.18.62-1.96.17-4.83.25-8.61.25-.33,0-.82.04-1.47.12-.65.08-1.13.12-1.47.12-.67,0-1.55-.02-2.65-.06-1.1-.04-1.92-.06-2.46-.06h-.5c-.21,0-.54.02-1,.06-.46.04-.81.06-1.06.06Zm1.93-4.06h1.56c.21,0,.49-.02.84-.06s.61-.06.78-.06h2.43c1.08,0,2.02-.15,2.81-.44.25-.08.68-.13,1.28-.16.6-.02,1.07-.09,1.4-.22l.25-.12c.17-.08.39-.12.69-.12,1.62-.62,2.47-.96,2.56-1l.75-.5s.21-.23.5-.56c.29-.33.54-.58.75-.75.08-.08.23-.12.44-.12l1.12-.87c.92-.91,1.44-1.48,1.56-1.68.46-.46.75-.87.87-1.25,0-.04.12-.52.37-1.43.33-.67.5-1.12.5-1.37.17-.5.25-.89.25-1.19l.44-2.56c0-.12-.03-.33-.09-.62-.06-.29-.09-.5-.09-.62,0-.04.15-.35.44-.94,0-.12.02-.27.06-.44.04-.17.06-.31.06-.44v-2.56c0-.25.02-.61.06-1.09.04-.48.06-.84.06-1.09,0-.42-.02-1.05-.06-1.9-.04-.85-.06-1.49-.06-1.9v-3.18s.02-.12.06-.25c.04-.12.06-.23.06-.31-.08-.17-.12-.37-.12-.62v-6.74c0-.21.04-.52.12-.94.08-.42.12-.71.12-.87,0-.12-.02-.38-.06-.75-.04-.37-.06-.64-.06-.81s-.04-.41-.12-.72c-.08-.31-.12-.53-.12-.66,0-.25.02-.6.06-1.06.04-.46.06-.79.06-1,0-.29-.08-.77-.25-1.43-.17-.67-.27-1.16-.31-1.5-.04-.21-.07-.52-.09-.94-.02-.42-.05-.8-.09-1.15-.04-.35-.1-.68-.19-.97l-.25-.62c-.17-1.08-.33-1.81-.5-2.18l-.75-1.81c0-.33-.04-.58-.12-.75l-.37-.37c-.08-.25-.23-.48-.44-.69,0-.17-.04-.29-.12-.37h-.12c-.08-.08-.12-.21-.12-.38-.17-.25-.71-.71-1.62-1.37-.21-.21-.48-.39-.81-.56,0-.17-.04-.25-.12-.25-.08-.08-.24-.17-.47-.25-.23-.08-.41-.17-.53-.25-.12-.08-.34-.22-.66-.41-.31-.19-.53-.3-.66-.34-.21-.08-.56-.13-1.06-.16-.5-.02-.81-.05-.94-.09-.04,0-.19-.06-.44-.19-.25-.12-.46-.19-.62-.19h-.62l-1.12-.37c-.33,0-.81.02-1.43.06-.62.04-1,.06-1.12.06-1.33.17-2.5.25-3.49.25-.42,0-1.04.02-1.87.06-.83.04-1.44.06-1.81.06-.08.08-.17.12-.25.12-.96.54-1.56.96-1.81,1.25-.62.62-.96,1.02-1,1.19-.08.25-.12.67-.12,1.25v1.56c0,.33.04.83.12,1.5.08.67.12,1.1.12,1.31s-.02.54-.06,1c-.04.46-.06.81-.06,1.06,0,.21.02.54.06,1,.04.46.06.79.06,1,0,.17-.04.41-.12.72-.08.31-.12.55-.12.72v1.62l.37,2.06v.81c0,.54-.04,1.38-.12,2.53-.08,1.14-.12,2.03-.12,2.65v6.3c0,.29-.04.67-.12,1.12-.08.46-.12.77-.12.94,0,.08.02.22.06.41.04.19.06.34.06.47v3.8c0,1.29-.04,2.18-.12,2.68,0,.08-.02.24-.06.47-.04.23-.06.39-.06.47,0,.42.04.75.12,1l-.5,13.66c-.29.75-.44,1.43-.44,2.06,0,.25.02.65.06,1.22.04.56.06.97.06,1.22v.87c0,.38.1.77.31,1.19.33.08.75.12,1.25.12.37,0,.91-.04,1.62-.12.71-.08,1.23-.12,1.56-.12Z"/>
      <path class="cls-1" d="m765.89,102.06c0,.17.02.34.06.53.04.19.06.37.06.53-.08.21-.2.35-.34.44-.15.08-.36.13-.66.16-.29.02-.48.03-.56.03-.67-.17-1.08-.25-1.25-.25-.17.08-.38.12-.62.12-.08,0-.19-.02-.31-.06-.12-.04-.21-.06-.25-.06h-10.86c-.25,0-.61.02-1.09.06-.48.04-.86.06-1.15.06-.12-.08-.42-.18-.87-.28-.46-.1-.81-.22-1.06-.34l-1.81-1.19c-.17-.17-.57-.39-1.22-.69-.65-.29-1.13-.6-1.47-.94-.17-.17-.46-.43-.87-.78-.42-.35-.73-.67-.94-.94-.21-.27-.42-.59-.62-.97-.38-.37-.62-.69-.75-.94-.04-.08-.1-.25-.19-.5-.08-.25-.18-.46-.28-.62-.1-.17-.24-.33-.41-.5l-.94,1.12-.62,1.19-.75.62c-.08.08-.25.38-.5.87l-.94.62c-.08.04-.17.15-.25.31-.08.17-.17.29-.25.37-.75.5-1.17.79-1.25.87-.21.37-1.1,1.02-2.68,1.93l-1.93.75c-.08,0-.29.08-.62.25-.71.37-1.48.62-2.31.75-.21.08-.94.23-2.18.44-1.04.37-1.73.58-2.06.62-.79,0-1.35.04-1.68.12h-1.62c-.62,0-1.1.04-1.43.12h-2.81c-.75-.08-1.85-.33-3.31-.75-.04,0-.1-.02-.19-.06-.08-.04-.15-.06-.19-.06-.42-.21-1.14-.4-2.18-.56-.75-.25-1.21-.37-1.37-.37-.12-.04-.4-.07-.81-.09-.42-.02-.75-.07-1-.16-.58-.12-1.1-.37-1.56-.75-.75,0-1.64-.52-2.68-1.56l-.62-.25-1.37-1.12-.69-.69c-.46-.42-.83-.66-1.12-.75v-.12c-.25-.37-.5-.62-.75-.75-.04,0-.09-.02-.16-.06s-.11-.06-.16-.06c-.54-.42-1.04-.94-1.5-1.56-.04-.08-.12-.28-.25-.59-.12-.31-.25-.49-.37-.53-.17-.5-.4-.85-.69-1.06v-.12c0-.08-.21-.54-.62-1.37l-.25-1.56-.5-1.62c0-.17-.02-.45-.06-.84-.04-.39-.06-.67-.06-.84-.08-.67-.12-1.68-.12-3.06,0-1.79.08-3.01.25-3.68.17-.5.25-.89.25-1.19.12-.37.28-.8.47-1.28.19-.48.34-.91.47-1.31.12-.39.23-.84.31-1.34.17-.25.38-.63.65-1.15.27-.52.49-.91.66-1.15l.25-.5c.08-.12.17-.19.25-.19l.25-.5h.12c.04-.12.19-.36.44-.72.25-.35.42-.66.5-.91.29-.29.46-.48.5-.56.17,0,.25-.12.25-.37l.25-.12c.04-.08.16-.3.34-.65.19-.35.32-.68.41-.97.17-.04.41-.18.72-.41.31-.23.55-.36.72-.41.12-.12.32-.35.59-.69.27-.33.53-.6.78-.81.83-.62,1.35-.98,1.56-1.06.17,0,.5-.17,1-.5.17,0,.29-.08.38-.25l.69-.37.25-.12,1.25-.62c.92-.46,1.6-.69,2.06-.69h.25l1.43-.87,1.75-.25c.67-.21,1.02-.33,1.06-.37.33-.17.54-.25.62-.25l1.37-.37c.33-.04.8-.18,1.4-.41s.99-.36,1.15-.41c.25-.25.89-.37,1.93-.37l2.31-.25c.25,0,.62-.08,1.12-.25,1.83-.42,2.95-.75,3.37-1,.21,0,.62-.16,1.25-.47.62-.31,1.02-.55,1.19-.72l1-.75c.25-.17.77-.46,1.56-.87.08-.08.2-.21.34-.37.15-.17.27-.31.38-.44.1-.12.23-.25.37-.38.15-.12.28-.21.41-.25.42-.46.94-1.16,1.56-2.12.62-.96,1.08-1.6,1.37-1.93l.12-.19.38-.5,1.18-2.68c.21-.29.38-.79.5-1.5v-2.31s.02-.19.06-.44c.04-.25.06-.46.06-.62s-.02-.39-.06-.69c-.04-.29-.06-.52-.06-.69v-1.68c-.04-.25-.15-.7-.31-1.34-.17-.64-.27-1.13-.31-1.47l-.75-1.12-1.06-.94-.5-.25-.37-.37c-.12-.08-.56-.25-1.31-.5l-.62-.38c-.25-.08-1.31-.33-3.18-.75-.33,0-.77-.09-1.31-.28-.54-.19-.96-.28-1.25-.28-.12,0-.36.06-.72.19-.35.12-.59.21-.72.25-.58,0-.96.04-1.12.12-.25.08-.81.37-1.68.87l-.62.25c-.08.04-.42.25-1,.62-.17.12-.43.28-.78.47-.35.19-.61.34-.78.47l-.25.25c-.17,0-.25.04-.25.12-.12.04-.28.16-.47.34-.19.19-.32.32-.41.41-.08.12-.25.26-.5.41-.25.15-.4.26-.44.34l-.37.37c-.04.08-.12.19-.22.31-.1.12-.16.21-.16.25-.17.12-.35.38-.56.75s-.35.62-.44.75c-.17.21-.32.45-.47.72-.15.27-.28.56-.41.87-.12.31-.23.55-.31.72-.12.08-.46.6-1,1.56-.04.08-.15.29-.31.62-.17.33-.27.58-.31.75,0,.17.02.46.06.87.04.42.06.73.06.94,0,.17-.05.47-.16.9-.1.44-.16.74-.16.91,0,.33.07.79.22,1.37.14.58.22.92.22,1,.08.17.12.44.12.81.08.25.26.52.53.81.27.29.43.56.47.81.08.08.12.27.12.56v.38c0,.17-.06.32-.19.47s-.25.25-.37.31-.33.15-.62.25c-.29.1-.5.18-.62.22-.08,0-.23.02-.44.06-.21.04-.35.06-.44.06-.33,0-.79-.05-1.37-.16-.58-.1-.98-.18-1.18-.22-.83-.17-1.56-.25-2.18-.25-.25-.04-.83-.25-1.75-.62-.62,0-1.1-.17-1.43-.5-.17,0-.25-.1-.25-.31l-.37-.25-1.43-1c-.33-.17-.54-.33-.62-.5-.08-.04-.17-.12-.25-.25-.08-.12-.17-.21-.25-.25-.46-.46-.71-.73-.75-.81-.08-.08-.12-.21-.12-.38-.46-.46-.81-1.18-1.06-2.18-.5-1-.75-1.54-.75-1.62s.02-.23.06-.44c.04-.21.06-.38.06-.5,0-.08-.02-.23-.06-.44-.04-.21-.06-.35-.06-.44,0-.25.09-.64.28-1.19.19-.54.3-.87.34-1l.5-1.62c.12-.37.27-.69.44-.94.29-.46.5-.91.62-1.37.12-.21.43-.49.9-.84.48-.35.76-.67.84-.97.17-.17.43-.36.78-.59.35-.23.57-.41.66-.53.25-.5.42-.77.5-.81l2.31-1.25c.42-.21,1.18-.69,2.31-1.43l2.81-.87c.08-.04.45-.22,1.09-.53.64-.31,1.13-.51,1.47-.59h1.25c.12,0,.31-.07.56-.22.25-.14.42-.22.5-.22h.62c.25,0,.42-.04.5-.12.5-.17.85-.25,1.06-.25.38-.29.96-.5,1.75-.62h.5s.11-.02.22-.06c.1-.04.18-.06.22-.06.62-.17,2.02-.33,4.18-.5.21,0,.52-.04.94-.12.42-.08.71-.12.87-.12,2.29.21,3.47.33,3.56.38l1.68.37h1.12c.21,0,.5.06.87.19.37.12.69.19.94.19.04,0,.1-.02.19-.06.08-.04.15-.06.19-.06,1.7,0,3.16.48,4.37,1.44.71,0,1.48.25,2.31.75l.12.12c.17,0,.29.04.37.12l.62.5c.83.62,1.35,1.1,1.56,1.43.33,0,.75.17,1.25.5.46.46,1.45,1.09,2.96,1.9,1.52.81,2.61,1.63,3.27,2.46v.25c.17.21.85.92,2.06,2.12.17.54.57,1.06,1.22,1.56.64.5,1.05.98,1.22,1.44l1,1.37c.12.25.31.5.56.75l.5,1.81s.09.19.16.44c.06.25.13.44.22.56.21.58.38,1.19.5,1.81-.08.42-.12,1.1-.12,2.06,0,1.12.04,1.93.12,2.43.17.33.25.58.25.75v1c.04.08.1.22.19.41s.16.36.22.53c.06.17.09.33.09.5v3.06c0,.12.05.28.16.47.1.19.16.32.16.41,0,.04-.07.21-.22.5-.15.29-.22.52-.22.69v.87c0,1.12.04,1.93.12,2.43-.17.67-.25,1.1-.25,1.31,0,.33.08.83.25,1.5v3.99c0,.12.05.32.16.59.1.27.16.49.16.66.08.17.12.37.12.62,0,.17-.1.77-.31,1.81,0,.17.03.43.09.78.06.35.09.61.09.78v2.81c0,.37.02.89.06,1.56.04.67.06,1.12.06,1.37,0,.17-.02.42-.06.75-.04.33-.06.58-.06.75v.81c0,.92.04,1.54.12,1.87v1.31c.17.5.25.87.25,1.12,0,.87-.04,1.56-.12,2.06v1.18c0,.12-.02.29-.06.5-.04.21-.06.38-.06.5,0,.17.04.69.12,1.56.08.87.12,1.5.12,1.87v.5c.21.83.58,1.52,1.12,2.06.08.08.12.17.12.25,0,.21.17.48.5.81.08.08.23.17.44.25l.38.12c.08.04.19.15.31.31s.23.27.31.31c.08.08.27.18.56.28s.52.22.69.34c.12.04.29.09.5.16.21.06.38.13.53.22.15.08.28.21.41.37Zm-32.56-7.61c.08-.08.38-.31.87-.69.5-.37.79-.66.87-.87l.12-.12c.08-.08.27-.42.56-1l.75-3.24c0-.08.08-.29.25-.62v-.5c0-.21-.02-.52-.06-.94-.04-.42-.06-.75-.06-1v-.37c0-.08.02-.23.06-.44.04-.21.06-.35.06-.44v-1.18c.04-.12.17-.79.37-2,0-.04-.02-.15-.06-.31-.04-.17-.06-.29-.06-.37,0-.04.02-.13.06-.28.04-.14.06-.26.06-.34-.08-.67-.12-1.73-.12-3.18v-1.31c0-1.08-.04-1.79-.12-2.12.17-.33.25-.56.25-.69v-1.25c0-.21.04-.51.12-.9.08-.39.12-.7.12-.9v-.38c0-.12-.02-.35-.06-.69-.04-.33-.06-.56-.06-.69,0-.21.02-.51.06-.9.04-.39.06-.7.06-.9s-.04-.54-.12-1c-.08-.46-.12-.77-.12-.94,0-.21.06-.58.19-1.12.12-.54.19-.85.19-.94v-1.25c0-.54.04-.94.12-1.19,0-.42.08-.87.25-1.37,0-.29-.02-.56-.06-.81-.04-.25-.06-.46-.06-.62,0-.08.02-.31.06-.69.04-.37.06-.69.06-.94v-.5c0-.46-.17-.73-.5-.81-.25,0-.38.08-.38.25-.08.08-.26.25-.53.5-.27.25-.51.49-.72.72-.21.23-.4.43-.56.59-.12.21-.4.49-.81.84-.42.35-.69.59-.81.72-.04.08-.17.18-.37.28-.21.1-.35.22-.44.34-.25.08-.56.24-.94.47-.37.23-.6.36-.69.41l-1.19.62c-.33.08-.68.21-1.03.37-.35.17-.78.41-1.28.72-.5.31-.83.51-1,.59l-1.81,1.12c-.38.33-.92.73-1.62,1.19-.08.08-.21.17-.38.25-.17.08-.29.17-.37.25-.21.33-.77.73-1.68,1.19-.04.04-.09.14-.16.28-.06.15-.14.26-.22.34l-.75.62-.56.62c0,.17-.04.25-.12.25l-.25.25c-.96,1.33-1.56,2.25-1.81,2.75-.25.5-.38,1.04-.38,1.62-.12.08-.37.6-.75,1.56-.08.08-.17.12-.25.12,0,.12-.02.28-.06.47s-.06.32-.06.41c0,.21.02.55.06,1.03.04.48.06.82.06,1.03,0,.17-.08.33-.25.5v.87c-.25.75-.37,1.18-.37,1.31v1c0,.08-.02.22-.06.41-.04.19-.06.32-.06.41-.17.83-.25,1.41-.25,1.75v.38c0,.87.04,1.52.12,1.93,0,.29.04.67.12,1.12.08.46.12.77.12.94v1.25c0,.12.02.34.06.66.04.31.06.53.06.65l.38,1.12v.62c0,.29.04.52.12.69,0,.12.02.31.06.56.04.25.06.44.06.56.04.17.07.52.09,1.06.02.54.07.92.16,1.12.12.38.56.94,1.31,1.68.87,1.04,1.73,1.79,2.56,2.25.08,0,.19-.02.31-.06.12-.04.23-.06.31-.06.25,0,.61.07,1.09.22.48.15.76.22.84.22l2.37-.56,2.06-.25c.29,0,.6-.08.94-.25.12-.08.31-.16.56-.22.25-.06.39-.11.44-.16.17,0,.33-.08.5-.25.96-.5,1.81-1.18,2.56-2.06.33-.17.85-.62,1.56-1.37Z"/>
      <path class="cls-1" d="m793.59,82.53v.12c0,.08-.05.24-.16.47-.1.23-.18.38-.22.47-.58,1.16-.96,1.87-1.12,2.12-.5,1.5-.85,2.95-1.06,4.37-.17.5-.25.96-.25,1.37,0,.62.08,1.1.25,1.43,0,.08.02.21.06.37.04.17.06.29.06.38l.37,1.68s.02.1.06.19c.04.08.06.15.06.19v.12c.29.75.73,1.52,1.31,2.31.58.67,1.14,1.14,1.68,1.43.25.17.63.31,1.15.44.52.12,1.13.25,1.84.38.71.12,1.23.23,1.56.31.12,0,.44.06.94.19s.87.19,1.12.19c.25.08.73.12,1.43.12,1.41,0,2.97-.37,4.68-1.12.75-.5,1.31-.81,1.68-.94.87-.42,1.43-.96,1.68-1.62l.87-1.56c.21-.21.37-.58.5-1.12.42-.96.62-1.97.62-3.06,0-.71-.12-1.31-.37-1.81-.04-.08-.29-.6-.75-1.56l-1.12-1.5c0-.25-.15-.52-.44-.81l-1-.75c-.54-.37-1.43-1.1-2.68-2.18l-.5-.38c-.08-.08-.28-.2-.59-.34-.31-.15-.55-.28-.72-.41-.42-.12-1.01-.47-1.78-1.03-.77-.56-1.28-.91-1.53-1.03-.25-.21-.62-.43-1.12-.66s-.81-.38-.94-.47c-.17,0-.58-.17-1.25-.5-1.91-1.12-3.12-1.89-3.62-2.31-.08-.08-.26-.21-.53-.37-.27-.17-.52-.33-.75-.5s-.34-.27-.34-.31c-.71-.17-1.65-.64-2.84-1.43-1.18-.79-2.03-1.29-2.53-1.5-.25-.25-1.27-.62-3.06-1.12-.46-.42-1.37-1.06-2.75-1.93-1.37-.87-2.33-1.64-2.87-2.31-.62-.21-1.56-.94-2.81-2.18-.04-.08-.16-.2-.34-.34-.19-.15-.3-.24-.34-.28-.08-.08-.22-.26-.41-.53-.19-.27-.34-.47-.47-.59-.37-.17-.67-.48-.87-.94-.37-.37-.94-1.31-1.68-2.81v-.12c0-.17-.17-.42-.5-.75l-.81-1.31s-.17-.75-.38-2.12v-.25c0-.29-.08-.69-.25-1.18-.04-.17-.08-.8-.12-1.9-.04-1.1-.21-1.96-.5-2.59,0-.04.02-.08.06-.12.04-.04.06-.08.06-.12.5-1,.75-1.93.75-2.81,0-.33.05-.74.16-1.22.1-.48.18-.8.22-.97.08-.42.35-1,.81-1.75l.25-.5c.08-.12.15-.25.19-.38.04-.12.07-.27.09-.44.02-.17.05-.29.09-.37.17-.33.5-.83,1-1.5.67-1.29,1.66-2.41,2.99-3.37l1-1.12c.21-.08.49-.28.84-.59.35-.31.57-.51.65-.59.42-.17,1.02-.56,1.81-1.18.79-.62,1.35-1.02,1.68-1.19.17,0,.25-.06.25-.19.08-.04.25-.16.5-.34.25-.19.46-.32.62-.41.21-.21.69-.45,1.43-.72.75-.27,1.29-.53,1.62-.78.5,0,1.79-.27,3.87-.81.96,0,1.6-.08,1.93-.25.17,0,.42-.08.75-.25l.75-.37c.42-.08,1.14-.12,2.18-.12,1.25-.25,1.89-.37,1.93-.37h3.06c.33-.08.83-.12,1.5-.12h1.43c.25,0,.61.04,1.09.12.48.08.84.12,1.09.12h2.06c.12,0,.33.04.62.12.29.08.5.12.62.12h1.31c.12,0,.31.04.56.12.25.08.44.12.56.12.79,0,1.39.04,1.81.12.71.29,1.46.5,2.25.62.87.17,2.04.6,3.49,1.31.21.17.98.58,2.31,1.25l1.87.94c.33.12.98.54,1.93,1.25l.87.75s.09.15.28.31c.19.17.44.38.75.66.31.27.57.51.78.72,0,.04.15.27.44.69.29.42.48.67.56.75.17.54.52,1.25,1.06,2.12-.08.25-.12.6-.12,1.06v1.12c0,.37-.08.89-.25,1.56l-.5,1.25c-.04.29-.18.71-.41,1.25-.23.54-.36.94-.41,1.19-.21.17-.43.49-.66.97-.23.48-.43.8-.59.97-.12.12-.65.37-1.56.75-.62.42-1.04.62-1.25.62l-2.93,1.31c-1.33.33-2.33.5-3,.5-.25.08-.71.12-1.37.12-.17,0-.42-.02-.75-.06-.33-.04-.56-.06-.69-.06-2.7-.21-4.14-.33-4.3-.37-.08-.04-.22-.08-.41-.12-.19-.04-.3-.08-.34-.12-.08,0-.73-.25-1.93-.75l-2.43-.94s-.41-.19-1.09-.44c-.69-.25-1.18-.48-1.47-.69-.58-.21-1.22-.55-1.9-1.03-.69-.48-1.03-.99-1.03-1.53,0-.25.04-.42.12-.5.04-.17.29-.48.75-.94.12-.12.41-.22.84-.28.44-.06.72-.13.84-.22.91-.46,1.6-.87,2.06-1.25.25-.17.53-.41.84-.72.31-.31.56-.59.75-.84.19-.25.45-.6.78-1.06.33-.46.56-.75.69-.87.42-.83.62-1.73.62-2.68,0-.33-.04-.54-.12-.62l-.5-.87c-.08-.08-.31-.27-.69-.56-.38-.29-.62-.54-.75-.75l-1.5-1.37c-.71-.62-1.71-.94-2.99-.94-.75.08-1.77.12-3.06.12-.75.04-1.45.26-2.09.65-.64.4-1.32.93-2.03,1.59-.71.67-1.25,1.12-1.62,1.37-.08.25-.3.63-.65,1.15-.35.52-.59.95-.72,1.28l-.69,2v2.68c0,1.33.23,2.45.69,3.37,0,.04.04.16.12.34.08.19.17.36.25.53.08.04.19.15.31.31.12.17.23.27.31.31l1.93,2.06c.08.29.46.69,1.12,1.19.21.21.59.52,1.15.94.56.42.95.73,1.15.94.21.04.62.24,1.25.59.62.35,1.14.55,1.56.59.79.58,1.68,1.08,2.68,1.5.12.08.33.19.62.31.29.12.48.23.56.31.37.08.75.31,1.12.69.29.08.73.28,1.31.59.58.31,1,.53,1.25.66l1.37.62c.46,0,1.54.43,3.24,1.28,1.71.85,2.85,1.51,3.43,1.97.5.17.75.33.75.5.54.37,1.27.76,2.18,1.15.91.4,1.64.78,2.18,1.15.37.25.84.56,1.4.94.56.37,1.02.68,1.37.9.35.23.77.54,1.25.94.48.4.97.82,1.47,1.28.66.29,1.56,1.18,2.68,2.68l.25.37c0,.08.05.19.16.31.1.12.18.25.22.38,0,.25.08.46.25.62.12.21.28.55.47,1.03.19.48.34.82.47,1.03.08.25.22.56.41.94.19.37.33.7.44.97s.16.49.16.66l.37,1.5c.04.12.09.29.16.5s.11.38.16.53c.04.15.06.28.06.41v1.12c0,.42.04.71.12.87.08.5.12,1.19.12,2.06,0,.17-.02.45-.06.84-.04.4-.06.68-.06.84-.17.67-.25,1.17-.25,1.5l-.37,2.31c-.25.87-.67,1.89-1.25,3.06-.08.17-.25.55-.5,1.15-.25.6-.51,1.12-.78,1.56s-.61.86-1.03,1.28c-.17.17-.36.39-.59.66-.23.27-.44.49-.62.66-.19.17-.38.33-.59.5-.04.04-.23.2-.56.47-.33.27-.6.45-.81.53-.12.08-.76.47-1.9,1.15-1.14.69-1.96,1.28-2.46,1.78-.12.12-.43.31-.9.56-.48.25-.82.46-1.03.62l-.75.37c-.17,0-.42.08-.75.25l-3.87,1.37c-.33,0-.92.17-1.75.5-1.12.21-2.3.38-3.52.53-1.23.15-2.8.3-4.71.47-1.91.17-3.14.27-3.68.31h-4.87c-.12,0-1.31-.12-3.56-.37h-1c-.46,0-.77-.04-.94-.12-.21,0-.49-.04-.84-.12-.35-.08-.61-.12-.78-.12h-1.31c-.58,0-1-.04-1.25-.12l-2.43-.44c-.37,0-.97-.1-1.78-.31-.81-.21-1.43-.31-1.84-.31-.42-.12-1.35-.46-2.81-1-.12-.08-1.1-.69-2.93-1.81l-.5-.25c-.87-.71-1.73-1.56-2.56-2.56l-.5-.5-1.31-1.12c-.42-.42-1.35-1.91-2.81-4.49-.21-.33-.45-.94-.72-1.81-.27-.87-.41-1.52-.41-1.93-.08-.42-.12-1.16-.12-2.25v-1.56c0-.96.08-1.64.25-2.06.29-.91.55-1.65.78-2.21.23-.56.69-1.22,1.37-1.96.69-.75,1.55-1.35,2.59-1.81,2.2-.87,5.09-1.31,8.67-1.31,2.54,0,5.22.69,8.05,2.06,1.16.58,2.12,1.21,2.87,1.87.75.67,1.75,1.71,2.99,3.12Z"/>
      <path class="cls-1" d="m862.83,82.53v.12c0,.08-.05.24-.16.47-.1.23-.18.38-.22.47-.58,1.16-.96,1.87-1.12,2.12-.5,1.5-.85,2.95-1.06,4.37-.17.5-.25.96-.25,1.37,0,.62.08,1.1.25,1.43,0,.08.02.21.06.37.04.17.06.29.06.38l.37,1.68s.02.1.06.19c.04.08.06.15.06.19v.12c.29.75.73,1.52,1.31,2.31.58.67,1.14,1.14,1.68,1.43.25.17.63.31,1.15.44.52.12,1.13.25,1.84.38.71.12,1.23.23,1.56.31.12,0,.44.06.94.19s.87.19,1.12.19c.25.08.73.12,1.43.12,1.41,0,2.97-.37,4.68-1.12.75-.5,1.31-.81,1.68-.94.87-.42,1.43-.96,1.68-1.62l.87-1.56c.21-.21.37-.58.5-1.12.42-.96.62-1.97.62-3.06,0-.71-.12-1.31-.37-1.81-.04-.08-.29-.6-.75-1.56l-1.12-1.5c0-.25-.15-.52-.44-.81l-1-.75c-.54-.37-1.43-1.1-2.68-2.18l-.5-.38c-.08-.08-.28-.2-.59-.34-.31-.15-.55-.28-.72-.41-.42-.12-1.01-.47-1.78-1.03-.77-.56-1.28-.91-1.53-1.03-.25-.21-.62-.43-1.12-.66s-.81-.38-.94-.47c-.17,0-.58-.17-1.25-.5-1.91-1.12-3.12-1.89-3.62-2.31-.08-.08-.26-.21-.53-.37-.27-.17-.52-.33-.75-.5s-.34-.27-.34-.31c-.71-.17-1.65-.64-2.84-1.43-1.18-.79-2.03-1.29-2.53-1.5-.25-.25-1.27-.62-3.06-1.12-.46-.42-1.37-1.06-2.75-1.93-1.37-.87-2.33-1.64-2.87-2.31-.62-.21-1.56-.94-2.81-2.18-.04-.08-.16-.2-.34-.34-.19-.15-.3-.24-.34-.28-.08-.08-.22-.26-.41-.53-.19-.27-.34-.47-.47-.59-.37-.17-.67-.48-.87-.94-.37-.37-.94-1.31-1.68-2.81v-.12c0-.17-.17-.42-.5-.75l-.81-1.31s-.17-.75-.38-2.12v-.25c0-.29-.08-.69-.25-1.18-.04-.17-.08-.8-.12-1.9-.04-1.1-.21-1.96-.5-2.59,0-.04.02-.08.06-.12.04-.04.06-.08.06-.12.5-1,.75-1.93.75-2.81,0-.33.05-.74.16-1.22.1-.48.18-.8.22-.97.08-.42.35-1,.81-1.75l.25-.5c.08-.12.15-.25.19-.38.04-.12.07-.27.09-.44.02-.17.05-.29.09-.37.17-.33.5-.83,1-1.5.67-1.29,1.66-2.41,2.99-3.37l1-1.12c.21-.08.49-.28.84-.59.35-.31.57-.51.65-.59.42-.17,1.02-.56,1.81-1.18.79-.62,1.35-1.02,1.68-1.19.17,0,.25-.06.25-.19.08-.04.25-.16.5-.34.25-.19.46-.32.62-.41.21-.21.69-.45,1.43-.72.75-.27,1.29-.53,1.62-.78.5,0,1.79-.27,3.87-.81.96,0,1.6-.08,1.93-.25.17,0,.42-.08.75-.25l.75-.37c.42-.08,1.14-.12,2.18-.12,1.25-.25,1.89-.37,1.93-.37h3.06c.33-.08.83-.12,1.5-.12h1.43c.25,0,.61.04,1.09.12.48.08.84.12,1.09.12h2.06c.12,0,.33.04.62.12.29.08.5.12.62.12h1.31c.12,0,.31.04.56.12.25.08.44.12.56.12.79,0,1.39.04,1.81.12.71.29,1.46.5,2.25.62.87.17,2.04.6,3.49,1.31.21.17.98.58,2.31,1.25l1.87.94c.33.12.98.54,1.93,1.25l.87.75s.09.15.28.31c.19.17.44.38.75.66.31.27.57.51.78.72,0,.04.15.27.44.69.29.42.48.67.56.75.17.54.52,1.25,1.06,2.12-.08.25-.12.6-.12,1.06v1.12c0,.37-.08.89-.25,1.56l-.5,1.25c-.04.29-.18.71-.41,1.25-.23.54-.36.94-.41,1.19-.21.17-.43.49-.66.97-.23.48-.43.8-.59.97-.12.12-.65.37-1.56.75-.62.42-1.04.62-1.25.62l-2.93,1.31c-1.33.33-2.33.5-3,.5-.25.08-.71.12-1.37.12-.17,0-.42-.02-.75-.06-.33-.04-.56-.06-.69-.06-2.7-.21-4.14-.33-4.3-.37-.08-.04-.22-.08-.41-.12-.19-.04-.3-.08-.34-.12-.08,0-.73-.25-1.93-.75l-2.43-.94s-.41-.19-1.09-.44c-.69-.25-1.18-.48-1.47-.69-.58-.21-1.22-.55-1.9-1.03-.69-.48-1.03-.99-1.03-1.53,0-.25.04-.42.12-.5.04-.17.29-.48.75-.94.12-.12.41-.22.84-.28.44-.06.72-.13.84-.22.91-.46,1.6-.87,2.06-1.25.25-.17.53-.41.84-.72.31-.31.56-.59.75-.84.19-.25.45-.6.78-1.06.33-.46.56-.75.69-.87.42-.83.62-1.73.62-2.68,0-.33-.04-.54-.12-.62l-.5-.87c-.08-.08-.31-.27-.69-.56-.38-.29-.62-.54-.75-.75l-1.5-1.37c-.71-.62-1.71-.94-2.99-.94-.75.08-1.77.12-3.06.12-.75.04-1.45.26-2.09.65-.64.4-1.32.93-2.03,1.59-.71.67-1.25,1.12-1.62,1.37-.08.25-.3.63-.65,1.15-.35.52-.59.95-.72,1.28l-.69,2v2.68c0,1.33.23,2.45.69,3.37,0,.04.04.16.12.34.08.19.17.36.25.53.08.04.19.15.31.31.12.17.23.27.31.31l1.93,2.06c.08.29.46.69,1.12,1.19.21.21.59.52,1.15.94.56.42.95.73,1.15.94.21.04.62.24,1.25.59.62.35,1.14.55,1.56.59.79.58,1.68,1.08,2.68,1.5.12.08.33.19.62.31.29.12.48.23.56.31.37.08.75.31,1.12.69.29.08.73.28,1.31.59.58.31,1,.53,1.25.66l1.37.62c.46,0,1.54.43,3.24,1.28,1.71.85,2.85,1.51,3.43,1.97.5.17.75.33.75.5.54.37,1.27.76,2.18,1.15.91.4,1.64.78,2.18,1.15.37.25.84.56,1.4.94.56.37,1.02.68,1.37.9.35.23.77.54,1.25.94.48.4.97.82,1.47,1.28.66.29,1.56,1.18,2.68,2.68l.25.37c0,.08.05.19.16.31.1.12.18.25.22.38,0,.25.08.46.25.62.12.21.28.55.47,1.03.19.48.34.82.47,1.03.08.25.22.56.41.94.19.37.33.7.44.97s.16.49.16.66l.37,1.5c.04.12.09.29.16.5s.11.38.16.53c.04.15.06.28.06.41v1.12c0,.42.04.71.12.87.08.5.12,1.19.12,2.06,0,.17-.02.45-.06.84-.04.4-.06.68-.06.84-.17.67-.25,1.17-.25,1.5l-.37,2.31c-.25.87-.67,1.89-1.25,3.06-.08.17-.25.55-.5,1.15-.25.6-.51,1.12-.78,1.56s-.61.86-1.03,1.28c-.17.17-.36.39-.59.66-.23.27-.44.49-.62.66-.19.17-.38.33-.59.5-.04.04-.23.2-.56.47-.33.27-.6.45-.81.53-.12.08-.76.47-1.9,1.15-1.14.69-1.96,1.28-2.46,1.78-.12.12-.43.31-.9.56-.48.25-.82.46-1.03.62l-.75.37c-.17,0-.42.08-.75.25l-3.87,1.37c-.33,0-.92.17-1.75.5-1.12.21-2.3.38-3.52.53-1.23.15-2.8.3-4.71.47-1.91.17-3.14.27-3.68.31h-4.87c-.12,0-1.31-.12-3.56-.37h-1c-.46,0-.77-.04-.94-.12-.21,0-.49-.04-.84-.12-.35-.08-.61-.12-.78-.12h-1.31c-.58,0-1-.04-1.25-.12l-2.43-.44c-.37,0-.97-.1-1.78-.31-.81-.21-1.43-.31-1.84-.31-.42-.12-1.35-.46-2.81-1-.12-.08-1.1-.69-2.93-1.81l-.5-.25c-.87-.71-1.73-1.56-2.56-2.56l-.5-.5-1.31-1.12c-.42-.42-1.35-1.91-2.81-4.49-.21-.33-.45-.94-.72-1.81-.27-.87-.41-1.52-.41-1.93-.08-.42-.12-1.16-.12-2.25v-1.56c0-.96.08-1.64.25-2.06.29-.91.55-1.65.78-2.21.23-.56.69-1.22,1.37-1.96.69-.75,1.55-1.35,2.59-1.81,2.2-.87,5.09-1.31,8.67-1.31,2.54,0,5.22.69,8.05,2.06,1.16.58,2.12,1.21,2.87,1.87.75.67,1.75,1.71,2.99,3.12Z"/>
      <path class="cls-1" d="m910.06,84.47c-.08-.04-.15-.15-.19-.31-.04-.17-.1-.31-.19-.44-1.08-1.87-2.1-4.26-3.06-7.17,0-.04-.02-.12-.06-.25-.04-.12-.06-.21-.06-.25-.17-2.16-.5-3.62-1-4.37v-.37l-.06-1.12c-.04-.71-.06-1.52-.06-2.43,0-1.71.04-3.2.12-4.49.17-.66.25-1.23.25-1.68l.5-1.87c.25-.62.46-1.35.62-2.18.75-2.08,1.23-3.58,1.44-4.49.12-.54.39-1.23.81-2.06.42-.83.69-1.41.81-1.75.42-.83.73-1.35.94-1.56.54-1.08.96-1.77,1.25-2.06l.38-.75c0-.08.06-.23.19-.44.12-.21.27-.46.44-.75.17-.29.27-.5.31-.62.17-.17.33-.42.5-.75.25-.46.47-.8.66-1.03.19-.23.51-.56.97-1,.46-.44.77-.74.94-.9.87-1.12,1.68-1.89,2.43-2.31l1.62-1.56c.33-.33.94-.79,1.81-1.37.87-.58,1.52-1.1,1.93-1.56.42-.04.88-.22,1.4-.53.52-.31.8-.47.84-.47l2.18-1c.17-.04.41-.16.72-.34.31-.19.51-.3.59-.34.17-.08.44-.17.81-.25.37-.08.64-.17.81-.25.08-.04.3-.17.66-.37.35-.21.61-.33.78-.38,1.83-.33,4.03-.98,6.61-1.93.79-.12,1.52-.29,2.18-.5.33-.08.9-.17,1.71-.25.81-.08,1.4-.17,1.78-.25.5-.17.87-.25,1.12-.25h2.18c.42.08,1.31.12,2.68.12h1.5c.17,0,.54.06,1.12.19.58.12,1.02.19,1.31.19h.5l.94.37c.12.04.49.09,1.09.16.6.06,1.05.13,1.34.22.17.04.49.15.97.31.48.17.84.27,1.09.31l2.12.56c.58.29.89.46.94.5.42.17,1.04.5,1.87,1s1.48.85,1.93,1.06c.08.08.32.2.72.34.4.15.68.28.84.41,0,.08.25.28.75.59.5.31,1.04.65,1.62,1,.58.35.94.63,1.06.84.25.12.59.33,1.03.62s.78.5,1.03.62c.04.04.15.08.31.12.17.04.27.08.31.12.71.29,1.42.87,2.15,1.75.73.87,1.28,1.46,1.65,1.75.08.08.27.32.56.72.29.4.54.66.75.78.08.12.41.53.97,1.22.56.69,1.03,1.3,1.4,1.84.37.54.64.98.81,1.31.08.21.25.5.5.87.25.37.42.67.5.87.25.54.62,1.23,1.12,2.06.5.83.85,1.43,1.06,1.81.12.21.44,1.06.94,2.56.71,1.75,1.21,3.7,1.5,5.86v1.56c0,.83.04,1.37.12,1.62v2.81c0,.96-.04,1.73-.12,2.31l-.25,2.18c-.04.33-.29,1.66-.75,3.99-.04.21-.12.48-.25.81-.12.33-.21.6-.25.81-.08.29-.23.87-.44,1.75-.21.87-.42,1.58-.62,2.12-.17.33-.25.62-.25.87l-.75,2.31c-.46.79-.81,1.6-1.06,2.43-.04.04-.22.34-.53.9-.31.56-.47.99-.47,1.28-.58,1.16-1.39,2.27-2.43,3.31l-1.12,1.37c-.12.33-1.14,1.46-3.06,3.37-.25.25-.68.6-1.28,1.06-.6.46-1.03.81-1.28,1.06-.54.71-1.23,1.39-2.06,2.06-.25.25-.73.5-1.44.75l-.75.69-2.06,1.25c-.25.25-.42.37-.5.37-.25.21-1.02.52-2.31.94-.08.04-.3.15-.66.31-.35.17-.63.27-.84.31l-1.56.25-1.25.37c-.54.21-1.54.43-2.99.66-1.46.23-2.43.45-2.93.66-.12.04-.56.12-1.31.25-.75.12-1.29.29-1.62.5-.17,0-.52.02-1.06.06-.54.04-.92.06-1.12.06h-2.37c-.42,0-1-.07-1.75-.22-.75-.15-1.25-.24-1.5-.28l-1.75-.25-1.43-.44c-.21-.04-.52-.09-.94-.16-.42-.06-.8-.14-1.15-.22-.35-.08-.68-.21-.97-.37l-1.43-.37c-.12-.04-.34-.07-.66-.09-.31-.02-.57-.05-.78-.09-.21-.04-.4-.15-.56-.31l-.5-.25c-.29-.08-.82-.22-1.59-.41-.77-.19-1.45-.38-2.03-.59s-1.04-.48-1.37-.81l-3.74-1.93c-.33-.29-1.14-.75-2.43-1.37-.12-.08-.59-.47-1.4-1.15-.81-.69-1.45-1.15-1.9-1.4-.46,0-.94-.34-1.43-1.03-.5-.69-.92-1.07-1.25-1.15-.33-.17-1.02-.77-2.06-1.81-.21-.04-.43-.26-.66-.66-.23-.39-.38-.63-.47-.72-.96-.96-1.56-1.68-1.81-2.18-.17-.33-.55-.84-1.15-1.53-.6-.69-1.03-1.24-1.28-1.65Zm50.34,8.92c.12-.12.27-.38.44-.78.17-.39.33-.67.5-.84.04-.04.17-.85.37-2.43,0-.04.02-.08.06-.12s.06-.08.06-.12c.17-.67.25-1.23.25-1.68v-1c0-.46.04-.85.12-1.18,0-.25.08-.62.25-1.12,0-.29.02-.66.06-1.09.04-.44.06-.76.06-.97.08-.42.12-1.14.12-2.18,0-.42.04-1,.12-1.75.08-.75.12-1.31.12-1.68,0-.12-.04-.32-.12-.59-.08-.27-.12-.47-.12-.59,0-.17.04-.42.12-.75.08-.33.12-.58.12-.75l.25-5.24v-.25c-.17-1.33-.25-2.35-.25-3.06,0-.08.02-.22.06-.41.04-.19.06-.32.06-.41v-2.43c0-.29.04-.73.12-1.31.08-.58.12-1,.12-1.25v-.37c0-.17-.02-.42-.06-.75-.04-.33-.06-.58-.06-.75-.08-.42-.12-1.06-.12-1.93v-1.68c0-.25-.02-.6-.06-1.06-.04-.46-.06-.81-.06-1.06v-1.43c0-2.75-.38-5.72-1.12-8.92-.17-.17-.34-.43-.53-.78-.19-.35-.37-.75-.53-1.19-.17-.44-.29-.72-.38-.84-.17-.37-.45-.87-.84-1.5-.4-.62-.66-1.1-.78-1.43-.04-.12-.27-.39-.69-.81-.25-.33-.62-.67-1.12-1-.37-.42-1.31-1.1-2.81-2.06-.46-.12-.81-.33-1.06-.62-1-.62-2.56-.94-4.68-.94-.5.12-1.06.19-1.68.19h-1.5c-.62,0-1.06.04-1.31.12-.62.12-1.23.33-1.81.62-.37.08-.75.26-1.12.53-.37.27-.62.43-.75.47l-.81.25-1.62,1.31c-.21.21-.45.55-.72,1.03-.27.48-.51.82-.72,1.03l-.87,1c-.08.5-.29,1.14-.62,1.93-.12.21-.27.54-.44,1l-.87,1.81-.75,1.87c0,.08-.25,1.25-.75,3.49,0,.04-.1.37-.31,1-.08.17-.12.37-.12.62v.69c-.17,1.17-.25,2.02-.25,2.56-.04.33-.12.74-.25,1.22-.12.48-.21.78-.25.9-.04.12-.07.43-.09.91-.02.48-.07.82-.16,1.03,0,.12-.02.3-.06.53-.04.23-.06.38-.06.47,0,.37-.04.88-.12,1.53-.08.65-.12,1.13-.12,1.47v1.37c0,.17-.02.41-.06.72-.04.31-.06.55-.06.72v2.56c0,.33.02.85.06,1.56.04.71.06,1.25.06,1.62v2.93c.25,1.25.37,2.1.37,2.56.08.75.12,1.77.12,3.06,0,.96.04,1.64.12,2.06v.87c0,.12.02.28.06.47.04.19.06.32.06.41.08.21.16.59.22,1.15s.16.99.28,1.28c.04.25.1.52.19.81.08.29.2.59.34.9.15.31.24.55.28.72,0,.37.04.69.12.94.12.25.32.78.59,1.59.27.81.53,1.42.78,1.84.04.12.15.29.31.5s.27.37.31.5c.04.08.19.48.44,1.18.5.5.96,1.17,1.37,2,.87.5,1.48,1.1,1.81,1.81.17.17.39.41.69.72.29.31.52.51.69.59l.69.5c.25.21.59.41,1.03.59.44.19.72.32.84.41.25.25.48.37.69.37.83.42,1.85.69,3.06.81l1.87.37c.25.08.56.12.94.12.5,0,.87-.04,1.12-.12l1.93-.25c1.33-.54,2.02-.81,2.06-.81,1.12-.54,1.75-.87,1.87-1,.5-.21,1.1-.62,1.81-1.25s1.19-1.02,1.44-1.19c.12-.25.38-.64.78-1.18.39-.54.68-.96.84-1.25Z"/>
    </g>
    <text class="cls-2" transform="translate(307.18 205.12)"><tspan x="0" y="0">Um caminho divertido</tspan></text>
  </g>
  <rect class="cls-1" x="255.09" y="12.74" width="5.55" height="204.84"/>
  <rect class="cls-1" x="307.18" y="127.26" width="686.53" height="5.55"/>
  <g>
    <g>
      <circle class="cls-1" cx="13.24" cy="25.98" r="13.24"/>
      <circle class="cls-1" cx="66.2" cy="78.94" r="13.24"/>
    </g>
    <path class="cls-1" d="m202.23,145.15c-1.05-5.27-3.18-9.99-6.81-14.04-4.61-5.14-10.19-8.84-16.56-11.35-8.3-3.27-16.98-4.51-25.84-4.48-8.49.02-16.96.42-25.42,1.18-5.08.46-10.17.91-15.25,1.36-2.84.25-5.68.52-8.58.78-.03.48-.04.91-.08,1.33-.28,2.62-.6,5.24-.84,7.86-.38,4.15-.73,8.31-1.07,12.47-.34,4.16-.75,8.31-.96,12.47-.22,4.35-.22,8.72-.35,13.08-.13,4.03.05,8.05.52,12.06.5,4.25,1.38,8.42,2.72,12.48.97,2.96,2.22,5.8,3.66,8.58,2.39,4.6,5.67,8.46,9.53,11.86.45.4.88.84,1.39,1.13,1.83,1.08,3.65,2.2,5.56,3.12,4.82,2.32,9.96,2.88,15.22,2.35,3.33-.33,6.51-1.31,9.55-2.76,4.14-1.99,7.68-4.72,10.38-8.43,3.4-4.67,5.35-9.89,5.72-15.71.21-3.31-.07-6.55-.8-9.77-.2-.87-.48-1.72-.73-2.58.14-.03.19-.06.23-.05.74.19,1.48.39,2.23.57,7.48,1.86,14.73,1.17,21.61-2.28,7.04-3.53,11.62-9.28,14.06-16.69,1.56-4.74,1.89-9.63.91-14.55Zm-58.16,32.78c-10.19,0-18.45-8.26-18.45-18.45s8.26-18.45,18.45-18.45,18.45,8.26,18.45,18.45-8.26,18.45-18.45,18.45Z"/>
  </g>
</svg>